<svg width="75" height="90" viewBox="0 0 117 200" fill="none" xmlns="http://www.w3.org/2000/svg">
<path d="M50.9229 121.797C50.9229 115.094 52.0866 109.508 54.4141 105.039C56.7415 100.57 59.5811 97.0326 62.9326 94.4258C66.2842 91.7259 70.7995 88.7002 76.4785 85.3486C81.8783 82.1833 86.1608 79.3903 89.3262 76.9697C92.4915 74.4561 95.1449 71.1976 97.2861 67.1943C99.5205 63.098 100.638 58.0706 100.638 52.1123C100.638 40.3818 96.9137 31.4443 89.4658 25.2998C82.0179 19.1553 71.5908 16.083 58.1846 16.083C45.0576 16.083 34.9098 19.5742 27.7412 26.5566C20.5726 33.446 16.9417 43.0817 16.8486 55.4639H0.370117C0.370117 44.1989 2.74414 34.4701 7.49219 26.2773C12.2402 17.9915 18.8968 11.6608 27.4619 7.28516C36.1201 2.81641 46.1748 0.582031 57.626 0.582031C69.2633 0.582031 79.5508 2.58366 88.4883 6.58691C97.4258 10.5902 104.408 16.502 109.436 24.3223C114.463 32.1426 116.977 41.499 116.977 52.3916C116.977 61.236 115.534 68.5908 112.647 74.4561C109.761 80.2282 106.27 84.79 102.174 88.1416C98.0775 91.4001 92.8639 94.8913 86.5332 98.6152C81.8783 101.315 78.2939 103.596 75.7803 105.458C73.2666 107.32 71.1253 109.601 69.3564 112.301C67.6807 115.001 66.8428 118.213 66.8428 121.937V144.979H50.9229V121.797ZM49.1074 169.277H69.0771V200H49.1074V169.277Z" fill="white"/>
</svg>
