<svg width="149" height="137" viewBox="0 0 149 137" fill="none" xmlns="http://www.w3.org/2000/svg">
<path d="M70.3599 117.21C70.4399 117.01 70.4899 116.81 70.5199 116.62C70.4899 116.8 70.4399 117 70.3599 117.21Z" fill="#00A79D"/>
<path d="M70.1199 117.26C70.1899 117.21 70.2899 117.21 70.3599 117.21C70.2899 117.21 70.1799 117.21 70.1199 117.26Z" fill="#00A79D"/>
<path d="M148.25 61.61C148.25 60.82 148.23 60.02 148.25 59.22C148.33 56.43 147.19 54.24 145.03 52.52C125.11 36.7 105.2 20.88 85.29 5.05998C78.49 -0.320019 70.7399 -0.380019 63.9799 4.97998C58.3299 9.45998 52.6799 13.94 47.0299 18.42C47.6399 18.5 47.96 18.65 48.56 18.75C52.79 19.43 56.9399 20.5 60.9499 22.04C62.8699 22.77 64.7199 23.59 66.5299 24.53C81.5099 32.09 93.11 46.15 94.54 66.31C98.06 66.31 100.93 69.04 100.93 72.39V87.62C100.93 90.86 98.27 93.5 94.93 93.7C93.32 103.6 85.8499 111.82 75.7499 115.64C74.8699 116 73.9799 116.27 73.0899 116.52C72.1799 116.8 71.2799 117 70.3499 117.2C69.8799 118.67 69.0199 119.87 67.9699 120.52C67.4899 120.81 66.9299 120.96 66.3799 120.96H52.56C50.16 120.96 48.1499 118 48.1499 114.43C48.1499 110.86 50.16 107.89 52.56 107.89H66.3799C68.1899 107.89 69.7899 109.61 70.4499 112.01C71.2799 111.81 72.0799 111.58 72.8599 111.33C73.1199 111.24 73.3599 111.13 73.6099 111.08C74.1199 110.85 74.6099 110.68 75.1299 110.48C75.1599 110.48 75.1799 110.45 75.2099 110.45C76.1599 110.05 77.0699 109.61 77.9399 109.1C84.0699 105.66 88.5299 100.16 89.8299 93.69H87.1399V66.3H89.5299C88.3299 51.74 80.1399 36.67 64.4699 28.71C62.8699 27.88 61.1499 27.13 59.3699 26.48C55.8499 25.19 51.9899 24.18 47.8599 23.59C45.5599 23.28 43.5199 23.24 41.0299 23.17C28.7099 32.94 16.3999 42.72 4.09989 52.52C2.65989 53.67 1.33986 55.04 1.18986 56.87C0.959857 59.86 0.71996 62.95 1.16996 65.9C1.73996 69.74 5.2699 71.95 9.2299 71.57C12.8699 71.24 15.6699 68.13 15.7399 64.09C15.7599 62.68 16.26 61.87 17.31 61.03C17.8 60.64 18.2899 60.26 18.7799 59.87C18.7499 60.23 18.7299 60.6 18.7399 60.98V64.28C18.7399 64.36 18.7299 64.43 18.7299 64.51V130.46H18.7399C18.7399 133.72 21.3799 136.36 24.6399 136.36H88.06L122.48 136.35C125.73 136.35 128.37 133.71 128.38 130.46V94.34C128.38 83.15 128.38 71.97 128.39 60.77C128.39 59.77 128.27 58.86 128.02 58C129.22 58.95 130.42 59.91 131.63 60.86C132.78 61.79 133.4 62.68 133.43 64.27C133.53 68.24 136.36 71.25 139.95 71.57C143.9 71.94 147.2 69.68 148.06 65.89C148.36 64.51 148.27 63.03 148.35 61.6H148.26L148.25 61.61Z" fill="#00A79D"/>
</svg>
