<svg width="498" height="498" viewBox="0 0 498 498" fill="none" xmlns="http://www.w3.org/2000/svg">
<mask id="mask0_102_684" style="mask-type:alpha" maskUnits="userSpaceOnUse" x="0" y="0" width="498" height="498">
<rect width="498" height="498" rx="17" fill="#292928"/>
</mask>
<g mask="url(#mask0_102_684)">
<rect width="498" height="498" rx="17" fill="white"/>
</g>
<circle cx="250" cy="250" r="208" fill="#03A487" fill-opacity="0.25"/>
<path d="M240.64 337.755C240.769 337.652 240.961 337.652 241.077 337.652C240.948 337.652 240.756 337.652 240.64 337.742V337.755Z" fill="#00A79D"/>
<path d="M383.617 235.907C383.617 234.455 383.579 232.991 383.617 231.54C383.771 226.427 381.691 222.42 377.721 219.285C341.268 190.333 304.839 161.38 268.398 132.441C255.951 122.602 241.783 122.486 229.401 132.299C219.061 140.495 208.72 148.703 198.38 156.898C199.498 157.039 200.076 157.309 201.193 157.501C208.926 158.747 216.53 160.713 223.877 163.526C227.384 164.874 230.775 166.364 234.089 168.073C261.5 181.92 282.733 207.635 285.353 244.526C291.802 244.526 297.042 249.523 297.042 255.65V283.523C297.042 289.458 292.161 294.274 286.073 294.647C283.131 312.771 269.451 327.813 250.967 334.8C249.349 335.455 247.731 335.943 246.099 336.419C244.429 336.932 242.785 337.292 241.077 337.665C240.216 340.362 238.649 342.559 236.722 343.74C235.836 344.28 234.821 344.55 233.819 344.55H208.515C204.122 344.55 200.448 339.129 200.448 332.604C200.448 326.079 204.122 320.632 208.515 320.632H233.819C237.133 320.632 240.062 323.779 241.27 328.172C242.785 327.813 244.249 327.389 245.675 326.926C246.151 326.772 246.587 326.567 247.05 326.477C247.987 326.053 248.886 325.745 249.824 325.372C249.876 325.372 249.914 325.321 249.965 325.321C251.712 324.589 253.369 323.792 254.962 322.854C266.189 316.56 274.332 306.49 276.722 294.66H271.789V244.539H276.156C273.96 217.885 258.97 190.307 230.3 175.754C227.371 174.238 224.224 172.864 220.974 171.669C214.526 169.306 207.474 167.456 199.909 166.377C195.708 165.812 191.97 165.748 187.398 165.619C164.855 183.499 142.325 201.405 119.82 219.324C117.187 221.431 114.759 223.935 114.503 227.288C114.079 232.773 113.642 238.425 114.464 243.807C115.517 250.833 121.966 254.879 129.21 254.185C135.877 253.569 141.002 247.891 141.13 240.493C141.169 237.911 142.081 236.421 144.007 234.879C144.907 234.173 145.793 233.466 146.692 232.76C146.641 233.415 146.602 234.083 146.615 234.789V240.827C146.615 240.968 146.589 241.109 146.589 241.25V361.929H146.615C146.615 367.902 151.445 372.719 157.405 372.719H273.459L336.451 372.706C342.411 372.706 347.228 367.876 347.253 361.929V295.841C347.253 275.367 347.253 254.905 347.279 234.417C347.279 232.593 347.061 230.923 346.611 229.356C348.808 231.103 351.017 232.85 353.213 234.597C355.32 236.292 356.45 237.924 356.502 240.839C356.681 248.097 361.871 253.607 368.435 254.198C375.654 254.866 381.691 250.743 383.283 243.794C383.836 241.263 383.669 238.566 383.81 235.945H383.643L383.617 235.907Z" fill="#00A79D"/>
</svg>
