<svg width="498" height="498" viewBox="0 0 498 498" fill="none" xmlns="http://www.w3.org/2000/svg">
<mask id="mask0_102_937" style="mask-type:alpha" maskUnits="userSpaceOnUse" x="0" y="0" width="498" height="498">
<rect width="498" height="498" rx="17" fill="#292928"/>
</mask>
<g mask="url(#mask0_102_937)">
<rect width="498" height="498" rx="17" fill="white"/>
</g>
<circle cx="250" cy="250" r="208" fill="#03A487" fill-opacity="0.25"/>
<path d="M209.787 244.876C213.11 247.165 218.611 249.117 225.141 249.117C241.755 249.117 243.818 236.86 243.818 215.087V173.838H251.838V215.087C251.838 239.836 248.857 256.335 225.141 256.335C218.154 256.335 212.307 254.618 207.498 251.295L209.792 244.881L209.787 244.876Z" fill="#424143"/>
<path d="M265.465 214.399C265.465 192.746 281.964 173.151 303.732 173.151C325.501 173.151 341.773 194.116 341.773 214.509C341.773 236.162 325.39 255.642 303.622 255.642C281.853 255.642 265.47 235.249 265.47 214.394L265.465 214.399ZM303.617 248.429C322.062 248.429 333.747 231.128 333.747 214.399C333.747 196.756 321.259 180.484 303.617 180.484C285.974 180.484 273.486 197.554 273.486 214.399C273.486 231.244 285.743 248.429 303.617 248.429Z" fill="#424143"/>
<path d="M394.706 255.07H356.439V173.723H395.509C406.968 173.723 414.07 184.263 414.07 194.462C414.07 202.599 409.719 210.042 402.386 213.365C411.666 216.115 417.509 224.252 417.509 234.104C417.509 246.251 407.199 255.07 394.706 255.07ZM364.345 180.71V210.73H392.302C400.323 210.73 406.281 203.628 406.281 195.722C406.281 187.817 400.664 180.715 392.99 180.715H364.345V180.71ZM395.509 217.26H364.345V248.078H394.706C403.068 248.078 409.488 240.745 409.488 232.724C409.488 224.703 403.53 217.255 395.509 217.255V217.26Z" fill="#424143"/>
<path d="M161.206 267.081V348.427H148.262V312.565H107.244V348.427H94.4102V267.081H107.244V301.111H148.262V267.081H161.206Z" fill="#5AA59B"/>
<path d="M173.809 307.757C173.809 286.104 190.307 266.509 212.532 266.509C234.758 266.509 250.799 287.474 250.799 307.867C250.799 329.52 234.416 349 212.186 349C189.956 349 173.804 328.607 173.804 307.752L173.809 307.757ZM212.307 337.43C228.348 337.43 237.744 322.307 237.744 307.757C237.744 292.287 227.66 278.198 212.307 278.198C196.953 278.198 186.869 293.09 186.869 307.757C186.869 322.423 196.722 337.43 212.307 337.43Z" fill="#5AA59B"/>
<path d="M331.805 348.427V289.883L307.633 334.223H300.53L276.242 289.883V348.427H263.408V267.081H277.156L304.079 316.806L331.002 267.081H344.75V348.427H331.805Z" fill="#5AA59B"/>
<path d="M418.081 337.084V348.427H362.282V267.081H417.047V278.424H375.111V301.568H411.43V312.224H375.111V337.084H418.076H418.081Z" fill="#5AA59B"/>
<path d="M135.01 241.061C135.07 240.905 135.115 240.745 135.135 240.599C135.11 240.745 135.07 240.9 135.01 241.061Z" fill="#5AA59B"/>
<path d="M196.159 197.409C196.159 196.786 196.144 196.159 196.159 195.536C196.225 193.343 195.331 191.627 193.63 190.276C177.995 177.854 162.36 165.436 146.73 153.018C141.389 148.792 135.311 148.747 130.001 152.958C125.564 156.472 121.127 159.995 116.695 163.509C117.172 163.569 117.423 163.689 117.899 163.765C121.217 164.302 124.48 165.14 127.627 166.35C129.132 166.927 130.588 167.564 132.009 168.302C143.769 174.24 152.879 185.277 154.003 201.098C156.768 201.098 159.017 203.241 159.017 205.866V217.822C159.017 220.367 156.924 222.435 154.309 222.595C153.049 230.37 147.182 236.82 139.251 239.821C138.559 240.102 137.866 240.313 137.163 240.514C136.446 240.735 135.743 240.89 135.01 241.051C134.644 242.21 133.966 243.149 133.143 243.656C132.766 243.887 132.33 244.002 131.898 244.002H121.046C119.164 244.002 117.583 241.678 117.583 238.878C117.583 236.077 119.159 233.743 121.046 233.743H131.898C133.319 233.743 134.573 235.093 135.095 236.98C135.748 236.825 136.375 236.644 136.988 236.443C137.188 236.373 137.379 236.288 137.575 236.248C137.976 236.067 138.363 235.931 138.764 235.776C138.784 235.776 138.805 235.751 138.83 235.751C139.578 235.434 140.29 235.093 140.973 234.692C145.786 231.991 149.285 227.67 150.309 222.595H148.196V201.098H150.068C149.129 189.664 142.694 177.834 130.397 171.59C129.138 170.937 127.792 170.35 126.392 169.833C123.626 168.819 120.6 168.026 117.352 167.559C115.55 167.318 113.949 167.288 111.987 167.233C102.315 174.907 92.6526 182.582 82.9956 190.271C81.8663 191.175 80.8273 192.249 80.7118 193.689C80.5311 196.038 80.3454 198.468 80.6918 200.777C81.1435 203.788 83.9091 205.525 87.016 205.229C89.877 204.968 92.0754 202.528 92.1256 199.356C92.1457 198.252 92.5322 197.609 93.3603 196.952C93.7418 196.646 94.1283 196.345 94.5097 196.038C94.4846 196.319 94.4746 196.611 94.4746 196.907V199.497C94.4746 199.557 94.4646 199.617 94.4646 199.677V251.451H94.4746C94.4746 254.011 96.5476 256.084 99.1074 256.084H126.241L148.893 256.074H175.917C178.472 256.074 180.54 254.006 180.55 251.451V223.097C180.55 214.314 180.55 205.535 180.56 196.746C180.56 195.963 180.464 195.245 180.274 194.573C181.217 195.321 182.161 196.069 183.104 196.821C184.008 197.549 184.495 198.252 184.515 199.497C184.595 202.609 186.819 204.978 189.634 205.229C192.731 205.515 195.321 203.748 196.004 200.767C196.245 199.677 196.164 198.523 196.23 197.399H196.159V197.409Z" fill="#5AA59B"/>
</svg>
