<svg width="498" height="498" viewBox="0 0 498 498" fill="none" xmlns="http://www.w3.org/2000/svg">
<mask id="mask0_102_690" style="mask-type:alpha" maskUnits="userSpaceOnUse" x="0" y="0" width="498" height="498">
<rect width="498" height="498" rx="17" fill="#292928"/>
</mask>
<g mask="url(#mask0_102_690)">
<rect width="498" height="498" rx="17" fill="white"/>
</g>
<circle cx="250" cy="250" r="208" fill="#03A487" fill-opacity="0.25"/>
<path d="M383.843 231.556C383.997 226.445 381.91 222.443 377.948 219.297C341.496 190.34 305.052 161.392 268.615 132.444C256.163 122.595 241.996 122.49 229.616 132.306C193.05 161.263 156.517 190.268 120.032 219.321C117.396 221.424 114.978 223.93 114.711 227.286C114.291 232.769 113.854 238.421 114.671 243.806C115.722 250.825 122.175 254.876 129.42 254.181C136.091 253.566 141.21 247.89 141.339 240.491C141.38 237.911 142.285 236.424 144.218 234.879C175.859 209.82 207.476 184.729 239.076 159.589C246.079 154.009 251.998 154.026 259.017 159.613C290.48 184.624 321.943 209.602 353.423 234.572C355.525 236.262 356.665 237.903 356.714 240.806C356.9 248.068 362.083 253.574 368.649 254.173C375.87 254.844 381.91 250.72 383.495 243.774C384.053 241.243 383.875 238.542 384.021 235.922H383.851C383.851 234.467 383.811 233.011 383.851 231.556H383.843Z" fill="#424143"/>
<path d="M273.661 372.7H336.652C342.612 372.7 347.431 367.872 347.455 361.921V295.824C347.455 275.35 347.455 254.884 347.479 234.394C347.479 228.806 345.418 224.545 341.051 220.987C313.13 198.265 285.257 175.478 257.44 152.635C249.928 146.481 244.324 146.505 236.772 152.691C208.988 175.438 181.18 198.176 153.371 220.882C148.835 224.569 146.773 228.976 146.805 234.782V240.814C146.805 240.952 146.781 241.097 146.781 241.235V361.929H146.805C146.805 367.896 151.633 372.724 157.6 372.724H220.858" fill="#424143"/>
<path d="M186.905 165.314C191.506 165.443 195.913 165.799 200.125 166.365C207.686 167.449 214.745 169.292 221.198 171.661C224.457 172.866 227.594 174.233 230.529 175.753C259.195 190.308 274.195 217.89 276.386 244.542H272.003V294.66H276.944C274.559 306.49 266.4 316.557 255.184 322.856C253.591 323.794 251.925 324.595 250.187 325.323C250.138 325.323 250.09 325.379 250.041 325.379C249.103 325.743 248.198 326.067 247.268 326.479C246.807 326.568 246.362 326.77 245.893 326.932C244.47 327.401 243.006 327.813 241.486 328.177C240.281 323.778 237.346 320.633 234.039 320.633H208.737C204.346 320.633 200.667 326.059 200.667 332.6C200.667 339.142 204.346 344.544 208.737 344.544H234.039C235.041 344.544 236.06 344.269 236.942 343.735C238.866 342.554 240.443 340.363 241.3 337.662C241.179 337.662 240.985 337.662 240.855 337.759C241.122 337.371 241.341 337.007 241.591 336.587C241.543 336.918 241.438 337.298 241.3 337.654C243.006 337.282 244.648 336.918 246.322 336.409C247.963 335.94 249.572 335.447 251.19 334.792C269.674 327.805 283.356 312.765 286.3 294.644C292.397 294.28 297.273 289.453 297.273 283.517V255.644C297.273 249.523 292.025 244.526 285.58 244.526C282.96 207.637 261.718 181.915 234.306 168.071C230.99 166.357 227.594 164.861 224.085 163.519C216.734 160.705 209.142 158.74 201.403 157.494C200.287 157.308 199.171 157.147 198.047 157.009" fill="white"/>
<path d="M240.84 337.775C241.106 337.379 241.333 337.007 241.575 336.603C241.519 336.934 241.422 337.306 241.284 337.67C241.155 337.67 240.953 337.67 240.84 337.767V337.775Z" fill="white"/>
</svg>
