<svg width="25" height="25" viewBox="0 0 66 66" fill="none" xmlns="http://www.w3.org/2000/svg">
<mask id="path-1-inside-1_88_72" fill="white">
<path d="M64.2713 30.575C65.4428 31.7465 65.4428 33.646 64.2713 34.8176L34.8175 64.2713C33.646 65.4429 31.7465 65.4429 30.5749 64.2713L1.12119 34.8176C-0.0503859 33.646 -0.0503885 31.7465 1.12118 30.575L30.5749 1.12125C31.7465 -0.0503186 33.646 -0.05032 34.8175 1.12125L64.2713 30.575Z"/>
</mask>
<path d="M66.3926 32.6963L32.6962 66.3926L66.3926 32.6963ZM-2.41435 38.3531C-5.53854 35.2289 -5.53854 30.1636 -2.41435 27.0394L23.5038 1.12125C26.628 -2.00294 31.6933 -2.00294 34.8175 1.12125L36.2318 2.53547C36.2318 2.53547 35.282 3.48521 34.1104 4.65679L6.07093 32.6963L-2.41435 38.3531ZM32.6962 -1.00007L66.3926 32.6963L32.6962 -1.00007ZM34.8175 64.2713C31.6933 67.3955 26.628 67.3955 23.5038 64.2713L-2.41435 38.3531C-5.53854 35.2289 -5.53854 30.1636 -2.41435 27.0394L6.07093 32.6963L34.1104 60.7358C35.282 61.9074 36.2318 62.8571 36.2318 62.8571L34.8175 64.2713Z" fill="#D9D9D9" mask="url(#path-1-inside-1_88_72)"/>
</svg>
