<svg width="498" height="498" viewBox="0 0 498 498" fill="none" xmlns="http://www.w3.org/2000/svg">
<rect width="498" height="498" fill="#03A487"/>
<mask id="mask0_251_259" style="mask-type:alpha" maskUnits="userSpaceOnUse" x="0" y="0" width="498" height="498">
<path d="M0 0H498V498H0V0Z" fill="#292928"/>
</mask>
<g mask="url(#mask0_251_259)">
<rect x="-402.424" y="198.301" width="425.564" height="1116.59" transform="rotate(-45 -402.424 198.301)" fill="#23AA8D"/>
<rect x="-101.612" y="-102.511" width="425.564" height="1116.59" transform="rotate(-45 -101.612 -102.511)" fill="#03A487"/>
</g>
<path d="M237.932 364.405C238.098 364.272 238.348 364.272 238.497 364.272C238.331 364.272 238.082 364.272 237.932 364.388V364.405Z" fill="white"/>
<path d="M423.012 232.566C423.012 230.687 422.962 228.792 423.012 226.913C423.212 220.295 420.518 215.107 415.38 211.05C368.192 173.572 321.036 136.093 273.864 98.6318C257.752 85.8952 239.412 85.7456 223.383 98.449C209.998 109.057 196.613 119.682 183.228 130.291C184.674 130.473 185.423 130.823 186.869 131.072C196.879 132.685 206.722 135.229 216.233 138.87C220.773 140.616 225.162 142.545 229.452 144.756C264.935 162.681 292.42 195.969 295.812 243.723C304.159 243.723 310.943 250.191 310.943 258.122V294.204C310.943 301.886 304.625 308.121 296.744 308.603C292.936 332.065 275.227 351.535 251.301 360.581C249.206 361.429 247.111 362.061 244.999 362.676C242.837 363.341 240.709 363.806 238.498 364.289C237.383 367.78 235.355 370.624 232.861 372.153C231.713 372.852 230.4 373.201 229.103 373.201H196.347C190.66 373.201 185.905 366.184 185.905 357.737C185.905 349.291 190.66 342.241 196.347 342.241H229.103C233.393 342.241 237.184 346.314 238.747 352.001C240.709 351.535 242.604 350.987 244.45 350.388C245.065 350.189 245.631 349.922 246.229 349.806C247.443 349.257 248.607 348.858 249.821 348.376C249.887 348.376 249.937 348.31 250.004 348.31C252.265 347.362 254.41 346.331 256.472 345.117C271.004 336.97 281.546 323.934 284.639 308.62H278.254V243.74H283.907C281.064 209.238 261.66 173.539 224.547 154.7C220.756 152.738 216.682 150.958 212.476 149.412C204.129 146.353 195 143.958 185.206 142.562C179.769 141.83 174.931 141.747 169.011 141.581C139.83 164.726 110.666 187.905 81.5343 211.1C78.1257 213.827 74.9831 217.069 74.6505 221.409C74.1018 228.509 73.5365 235.825 74.6006 242.792C75.9641 251.887 84.3112 257.125 93.6891 256.227C102.319 255.429 108.953 248.079 109.119 238.502C109.169 235.16 110.35 233.231 112.844 231.236C114.008 230.321 115.155 229.407 116.319 228.492C116.253 229.34 116.203 230.205 116.219 231.119V238.934C116.219 239.117 116.186 239.3 116.186 239.483V395.698H116.219C116.219 403.43 122.471 409.665 130.186 409.665H280.415L361.956 409.648C369.671 409.648 375.907 403.396 375.94 395.698V310.15C375.94 283.646 375.94 257.158 375.973 230.637C375.973 228.276 375.691 226.115 375.109 224.086C377.952 226.347 380.812 228.609 383.655 230.87C386.382 233.065 387.845 235.176 387.912 238.951C388.145 248.345 394.862 255.479 403.359 256.244C412.703 257.108 420.518 251.771 422.58 242.775C423.295 239.5 423.079 236.008 423.262 232.616H423.046L423.012 232.566Z" fill="white"/>
</svg>
