<svg width="75" height="90" viewBox="0 0 498 498" fill="none" xmlns="http://www.w3.org/2000/svg">
<mask id="mask0_25_231" style="mask-type:alpha" maskUnits="userSpaceOnUse" x="0" y="0" width="498" height="498">
<rect width="498" height="498" rx="17" fill="#292928"/>
</mask>
<g mask="url(#mask0_25_231)">
<rect x="-402.424" y="198.301" width="425.564" height="1116.59" rx="17" transform="rotate(-45 -402.424 198.301)" fill="#23AA8D"/>
<rect x="-101.612" y="-102.511" width="425.564" height="1116.59" rx="17" transform="rotate(-45 -101.612 -102.511)" fill="#03A487"/>
</g>
<path d="M238.932 365.405C239.098 365.272 239.348 365.272 239.497 365.272C239.331 365.272 239.082 365.272 238.932 365.388V365.405Z" fill="white"/>
<path d="M424.012 233.566C424.012 231.687 423.962 229.792 424.012 227.913C424.212 221.295 421.518 216.107 416.38 212.05C369.192 174.572 322.036 137.093 274.864 99.6318C258.752 86.8952 240.412 86.7456 224.383 99.449C210.998 110.057 197.613 120.682 184.228 131.291C185.674 131.473 186.423 131.823 187.869 132.072C197.879 133.685 207.722 136.229 217.233 139.87C221.773 141.616 226.162 143.545 230.452 145.756C265.935 163.681 293.42 196.969 296.812 244.723C305.159 244.723 311.943 251.191 311.943 259.122V295.204C311.943 302.886 305.625 309.121 297.744 309.603C293.936 333.065 276.227 352.535 252.301 361.581C250.206 362.429 248.111 363.061 245.999 363.676C243.837 364.341 241.709 364.806 239.498 365.289C238.383 368.78 236.355 371.624 233.861 373.153C232.713 373.852 231.4 374.201 230.103 374.201H197.347C191.66 374.201 186.905 367.184 186.905 358.737C186.905 350.291 191.66 343.241 197.347 343.241H230.103C234.393 343.241 238.184 347.314 239.747 353.001C241.709 352.535 243.604 351.987 245.45 351.388C246.065 351.189 246.631 350.922 247.229 350.806C248.443 350.257 249.607 349.858 250.821 349.376C250.887 349.376 250.937 349.31 251.004 349.31C253.265 348.362 255.41 347.331 257.472 346.117C272.004 337.97 282.546 324.934 285.639 309.62H279.254V244.74H284.907C282.064 210.238 262.66 174.539 225.547 155.7C221.756 153.738 217.682 151.958 213.476 150.412C205.129 147.353 196 144.958 186.206 143.562C180.769 142.83 175.931 142.747 170.011 142.581C140.83 165.726 111.666 188.905 82.5343 212.1C79.1257 214.827 75.9831 218.069 75.6505 222.409C75.1018 229.509 74.5365 236.825 75.6006 243.792C76.9641 252.887 85.3112 258.125 94.6891 257.227C103.319 256.429 109.953 249.079 110.119 239.502C110.169 236.16 111.35 234.231 113.844 232.236C115.008 231.321 116.155 230.407 117.319 229.492C117.253 230.34 117.203 231.205 117.219 232.119V239.934C117.219 240.117 117.186 240.3 117.186 240.483V396.698H117.219C117.219 404.43 123.471 410.665 131.186 410.665H281.415L362.956 410.648C370.671 410.648 376.907 404.396 376.94 396.698V311.15C376.94 284.646 376.94 258.158 376.973 231.637C376.973 229.276 376.691 227.115 376.109 225.086C378.952 227.347 381.812 229.609 384.655 231.87C387.382 234.065 388.845 236.176 388.912 239.951C389.145 249.345 395.862 256.479 404.359 257.244C413.703 258.108 421.518 252.771 423.58 243.775C424.295 240.5 424.079 237.008 424.262 233.616H424.046L424.012 233.566Z" fill="white"/>
</svg>
