<svg width="25" height="25" viewBox="0 0 70 70" fill="none" xmlns="http://www.w3.org/2000/svg">
<g clip-path="url(#clip0_92_496)">
<path d="M0 35C0 30.2867 0.933333 25.76 2.8 21.42C4.66667 17.08 7.14 13.3467 10.22 10.22C13.3 7.09333 17.0333 4.62 21.42 2.8C25.8067 0.98 30.3333 0.0466667 35 0C39.76 0 44.31 0.933333 48.65 2.8C52.99 4.66667 56.7 7.14 59.78 10.22C62.86 13.3 65.3333 17.0333 67.2 21.42C69.0667 25.8067 70 30.3333 70 35C70 39.76 69.0667 44.2867 67.2 48.58C65.3333 52.8733 62.86 56.6067 59.78 59.78C56.7 62.9533 52.9667 65.45 48.58 67.27C44.1933 69.09 39.6667 70 35 70C30.3333 70 25.8067 69.09 21.42 67.27C17.0333 65.45 13.3 62.9533 10.22 59.78C7.14 56.6067 4.66667 52.8733 2.8 48.58C0.933333 44.2867 0 39.76 0 35ZM8.75 35C8.75 39.76 9.91667 44.17 12.25 48.23C14.5833 52.29 17.78 55.4633 21.84 57.75C25.9 60.0367 30.2867 61.2033 35 61.25C39.7133 61.2967 44.1 60.13 48.16 57.75C52.22 55.37 55.4167 52.1967 57.75 48.23C60.0833 44.2633 61.25 39.8533 61.25 35C61.25 30.1467 60.0833 25.76 57.75 21.84C55.4167 17.92 52.22 14.7467 48.16 12.32C44.1 9.89333 39.7133 8.70333 35 8.75C30.2867 8.79667 25.9 9.98667 21.84 12.32C17.78 14.6533 14.5833 17.8267 12.25 21.84C9.91667 25.8533 8.75 30.24 8.75 35ZM30.66 35V21.91C30.66 20.6967 31.08 19.67 31.92 18.83C32.76 17.99 33.7867 17.5467 35 17.5C36.2133 17.4533 37.24 17.8967 38.08 18.83C38.92 19.7633 39.3633 20.79 39.41 21.91V30.66H48.16C49.3267 30.66 50.3533 31.08 51.24 31.92C52.1267 32.76 52.5467 33.7867 52.5 35C52.4533 36.2133 52.0333 37.2633 51.24 38.15C50.4467 39.0367 49.42 39.4567 48.16 39.41H35C33.7867 39.41 32.76 38.99 31.92 38.15C31.08 37.31 30.66 36.26 30.66 35Z" fill="white"/>
</g>
<defs>
<clipPath id="clip0_92_496">
<rect width="70" height="70" fill="white"/>
</clipPath>
</defs>
</svg>
