<svg width="75" height="75" viewBox="0 0 498 498" fill="none" xmlns="http://www.w3.org/2000/svg">
<g filter="url(#filter0_d_25_182)">
<mask id="mask0_25_182" style="mask-type:alpha" maskUnits="userSpaceOnUse" x="0" y="0" width="498" height="498">
<rect width="498" height="498" fill="#D9D9D9"/>
</mask>
<g mask="url(#mask0_25_182)">
<mask id="mask1_25_182" style="mask-type:alpha" maskUnits="userSpaceOnUse" x="11" y="7" width="476" height="477">
<path d="M486.101 245.199C486.101 376.553 379.947 483.036 249 483.036C118.053 483.036 11.8987 376.553 11.8987 245.199C11.8987 113.844 118.053 7.36087 249 7.36087C379.947 7.36087 486.101 113.844 486.101 245.199Z" fill="#050505"/>
</mask>
<g mask="url(#mask1_25_182)">
<path d="M249.732 246.832L179.353 3.44806L318.225 2.91045L249.732 246.832Z" fill="white"/>
<path d="M249.732 246.832L179.353 3.44806L318.225 2.91045L249.732 246.832Z" fill="white"/>
<path d="M244.086 246.669L420.989 65.3013L490.021 185.801L244.086 246.669Z" fill="white"/>
<path d="M245.906 245.804L490.151 313.134L417.967 431.772L245.906 245.804Z" fill="white"/>
<path d="M249.948 245.152L319.689 488.719L180.816 488.893L249.948 245.152Z" fill="white"/>
<path d="M248.086 246.802L490.988 174.776L492.466 313.641L248.086 246.802Z" fill="#03A487"/>
<path d="M245.678 246.885L431.445 419.162L312.723 491.208L245.678 246.885Z" fill="#03A487"/>
<path d="M250.629 241.404L189.45 487.261L69.0378 418.077L250.629 241.404Z" fill="#03A487"/>
<path d="M246.859 246.832L313.532 2.40683L432.364 74.2718L246.859 246.832Z" fill="#03A487"/>
<path d="M250.925 245.478L68.4717 69.6943L188.544 -0.0779581L250.925 245.478Z" fill="#03A487"/>
<path d="M250.492 245.999L7.11215 316.394L6.56526 177.523L250.492 245.999Z" fill="#03A487"/>
<path d="M255.655 245.416L71.9003 419.839L7.55869 296.771L255.655 245.416Z" fill="white"/>
<path d="M251.535 246.308L7.49565 178.238L80.0395 59.8195L251.535 246.308Z" fill="white"/>
<circle cx="247.087" cy="246.968" r="37.8497" fill="#D9D9D9"/>
</g>
</g>
</g>
<defs>
<filter id="filter0_d_25_182" x="7.89868" y="7.36084" width="482.203" height="483.675" filterUnits="userSpaceOnUse" color-interpolation-filters="sRGB">
<feFlood flood-opacity="0" result="BackgroundImageFix"/>
<feColorMatrix in="SourceAlpha" type="matrix" values="0 0 0 0 0 0 0 0 0 0 0 0 0 0 0 0 0 0 127 0" result="hardAlpha"/>
<feOffset dy="4"/>
<feGaussianBlur stdDeviation="2"/>
<feComposite in2="hardAlpha" operator="out"/>
<feColorMatrix type="matrix" values="0 0 0 0 0 0 0 0 0 0 0 0 0 0 0 0 0 0 0.25 0"/>
<feBlend mode="normal" in2="BackgroundImageFix" result="effect1_dropShadow_25_182"/>
<feBlend mode="normal" in="SourceGraphic" in2="effect1_dropShadow_25_182" result="shape"/>
</filter>
</defs>
</svg>
