<svg width="75" height="90" viewBox="0 0 1070 1230" fill="none" xmlns="http://www.w3.org/2000/svg">
<path d="M57.4565 779.26V451.26L561.957 615.26L57.4565 779.26Z" fill="white"/>
<path d="M1065.96 451.26V779.26L561.957 615.26L1065.96 451.26Z" fill="#23AA8D"/>
<path d="M1067.4 779.798L887.957 1031.76L561.957 615.26L1067.4 779.798Z" fill="white"/>
<path d="M235.957 197.76L561.633 85.2598L561.633 614.76L235.957 197.76Z" fill="white"/>
<path d="M57.4565 451.26L235.957 197.76L561.96 615.265L57.4565 451.26Z" fill="#23AA8D"/>
<path d="M561.461 85.2597L887.957 197.26L561.457 615.26L561.461 85.2597Z" fill="#23AA8D"/>
<path d="M561.457 1144.76L235.955 1031.76L561.457 615.024L561.457 1144.76Z" fill="white"/>
<path d="M887.456 1032.27L561.457 1144.26L561.457 614.76L887.456 1032.27Z" fill="#23AA8D"/>
<path d="M887.953 197.26L1065.96 450.76L561.457 615.26L887.953 197.26Z" fill="white"/>
<path d="M235.456 1031.76L57.4562 779.257L560.957 615.759L235.456 1031.76Z" fill="#23AA8D"/>
</svg>
