<svg width="500" height="600" viewBox="0 0 1699 1694" fill="none" xmlns="http://www.w3.org/2000/svg">
<mask id="mask0_22_259" style="mask-type:alpha" maskUnits="userSpaceOnUse" x="0" y="0" width="1699" height="1694">
<rect width="1699" height="1694" fill="#D9D9D9"/>
</mask>
<g mask="url(#mask0_22_259)">
<mask id="mask1_22_259" style="mask-type:alpha" maskUnits="userSpaceOnUse" x="40" y="25" width="1619" height="1619">
<path d="M1658.41 834.069C1658.41 1280.88 1296.25 1643.1 849.501 1643.1C402.755 1643.1 40.5952 1280.88 40.5952 834.069C40.5952 387.254 402.755 25.0388 849.501 25.0388C1296.25 25.0388 1658.41 387.254 1658.41 834.069Z" fill="#050505"/>
</mask>
<g mask="url(#mask1_22_259)">
<path d="M852 839.625L611.892 11.728L1085.67 9.89922L852 839.625Z" fill="white"/>
<path d="M852 839.625L611.892 11.728L1085.67 9.89922L852 839.625Z" fill="white"/>
<path d="M832.735 839.071L1436.27 222.129L1671.78 632.021L832.735 839.071Z" fill="white"/>
<path d="M838.947 836.127L1672.22 1065.16L1425.96 1468.72L838.947 836.127Z" fill="white"/>
<path d="M852.734 833.908L1090.67 1662.43L616.881 1663.02L852.734 833.908Z" fill="white"/>
<path d="M846.382 839.522L1675.08 594.519L1680.12 1066.88L846.382 839.522Z" fill="#03A487"/>
<path d="M838.165 839.805L1471.94 1425.82L1066.9 1670.9L838.165 839.805Z" fill="#03A487"/>
<path d="M855.06 821.16L646.338 1657.47L235.534 1422.13L855.06 821.16Z" fill="#03A487"/>
<path d="M842.198 839.625L1069.66 8.18613L1475.07 252.642L842.198 839.625Z" fill="#03A487"/>
<path d="M856.068 835.019L233.603 237.073L643.248 -0.265018L856.068 835.019Z" fill="#03A487"/>
<path d="M854.589 836.791L24.2651 1076.25L22.3993 603.862L854.589 836.791Z" fill="#03A487"/>
<path d="M872.205 834.809L245.299 1428.13L25.7885 1009.5L872.205 834.809Z" fill="white"/>
<path d="M858.151 837.845L25.5736 606.296L273.068 203.482L858.151 837.845Z" fill="white"/>
<ellipse cx="842.976" cy="840.087" rx="129.13" ry="128.75" fill="#D9D9D9"/>
</g>
</g>
</svg>
