<svg width="500" height="600" viewBox="0 0 1582 1582" fill="none" xmlns="http://www.w3.org/2000/svg">
<mask id="mask0_123_1137" style="mask-type:alpha" maskUnits="userSpaceOnUse" x="-1" y="0" width="1583" height="1583">
<ellipse cx="790.999" cy="791" rx="791" ry="791" fill="#D9D9D9"/>
</mask>
<g mask="url(#mask0_123_1137)">
<ellipse cx="790.352" cy="790.82" rx="0.647308" ry="0.647675" fill="#23AA8D"/>
<g filter="url(#filter0_i_123_1137)">
<path d="M790.352 790.821L463.466 1.29602H790.999H1118.53L790.352 790.821Z" fill="#23AA8D"/>
</g>
<path d="M790.352 790.821L463.466 1.29602H790.999H1118.53L790.352 790.821Z" stroke="#23AA8D" stroke-width="3"/>
<g filter="url(#filter1_i_123_1137)">
<path d="M790.386 790.475L1.29395 463.477L464.496 0.000528099L790.386 790.475Z" fill="white"/>
</g>
<path d="M790.386 790.475L1.29395 463.477L464.496 0.000528099L790.386 790.475Z" stroke="#23AA8D" stroke-width="3"/>
<g filter="url(#filter2_i_123_1137)">
<path d="M790.352 790.82L1.29395 1117.9L1.29395 462.446L790.352 790.82Z" fill="#23AA8D"/>
</g>
<path d="M790.352 790.82L1.29395 1117.9L1.29395 462.446L790.352 790.82Z" stroke="#23AA8D" stroke-width="3"/>
<g filter="url(#filter3_i_123_1137)">
<path d="M790.006 791.147L463.202 1580.7L-0.000592519 1117.23L790.006 791.147Z" fill="white"/>
</g>
<path d="M790.006 791.147L463.202 1580.7L-0.000592519 1117.23L790.006 791.147Z" stroke="#23AA8D" stroke-width="3"/>
<ellipse cx="791.647" cy="791.18" rx="0.647308" ry="0.647674" transform="rotate(-180 791.647 791.18)" fill="#23AA8D"/>
<g filter="url(#filter4_i_123_1137)">
<path d="M791.647 791.18L1118.53 1580.7L463.466 1580.7L791.647 791.18Z" fill="#23AA8D"/>
</g>
<path d="M791.647 791.18L1118.53 1580.7L463.466 1580.7L791.647 791.18Z" stroke="#23AA8D" stroke-width="3"/>
<g filter="url(#filter5_i_123_1137)">
<path d="M791.613 791.526L1580.7 1118.52L1117.5 1582L791.613 791.526Z" fill="white"/>
</g>
<path d="M791.613 791.526L1580.7 1118.52L1117.5 1582L791.613 791.526Z" stroke="#23AA8D" stroke-width="3"/>
<g filter="url(#filter6_i_123_1137)">
<path d="M791.647 791.18L1580.7 464.101L1580.7 1119.56L791.647 791.18Z" fill="#23AA8D"/>
</g>
<path d="M791.647 791.18L1580.7 464.101L1580.7 1119.56L791.647 791.18Z" stroke="#23AA8D" stroke-width="3"/>
<g filter="url(#filter7_i_123_1137)">
<path d="M791.993 790.854L1118.8 1.29602L1582 464.772L791.993 790.854Z" fill="white"/>
</g>
<path d="M791.993 790.854L1118.8 1.29602L1582 464.772L791.993 790.854Z" stroke="#23AA8D" stroke-width="3"/>
</g>
<g filter="url(#filter8_d_123_1137)">
<ellipse cx="790.999" cy="1448.66" rx="84.7962" ry="84.7962" fill="#23AA8D"/>
</g>
<g filter="url(#filter9_d_123_1137)">
<circle cx="1229.22" cy="1237.64" r="84.7962" fill="white"/>
</g>
<g filter="url(#filter10_d_123_1137)">
<ellipse cx="1411.76" cy="770.934" rx="84.7962" ry="84.7963" fill="#23AA8D"/>
</g>
<g filter="url(#filter11_d_123_1137)">
<ellipse cx="1214.98" cy="367.667" rx="84.7963" ry="84.7962" fill="white"/>
</g>
<g filter="url(#filter12_d_123_1137)">
<circle cx="790.999" cy="163.12" r="84.7962" fill="#23AA8D"/>
</g>
<g filter="url(#filter13_d_123_1137)">
<ellipse cx="336.595" cy="349.542" rx="84.7962" ry="84.7962" fill="white"/>
</g>
<g filter="url(#filter14_d_123_1137)">
<ellipse cx="167.003" cy="791" rx="84.7962" ry="84.7963" fill="#23AA8D"/>
</g>
<g filter="url(#filter15_d_123_1137)">
<ellipse cx="319.118" cy="1232.46" rx="84.7962" ry="84.7963" fill="white"/>
</g>
<g filter="url(#filter16_d_123_1137)">
<ellipse cx="791" cy="791" rx="126.871" ry="126.871" fill="white"/>
</g>
<path d="M720.617 801.943V762.677H727.929V801.943C727.929 805.599 727.18 808.684 725.682 811.198C724.184 813.712 722.115 815.629 719.474 816.949C716.859 818.244 713.85 818.891 710.448 818.891C707.045 818.891 704.024 818.307 701.383 817.139C698.743 815.972 696.673 814.194 695.175 811.807C693.677 809.421 692.928 806.412 692.928 802.781H700.279C700.279 805.117 700.711 807.034 701.574 808.532C702.437 810.03 703.63 811.135 705.154 811.846C706.703 812.556 708.467 812.912 710.448 812.912C712.378 812.912 714.104 812.506 715.628 811.693C717.176 810.855 718.395 809.624 719.284 807.999C720.172 806.348 720.617 804.33 720.617 801.943ZM737.451 797.982V797.106C737.451 794.136 737.882 791.381 738.746 788.842C739.609 786.277 740.853 784.056 742.478 782.177C744.103 780.272 746.071 778.8 748.381 777.759C750.692 776.692 753.282 776.159 756.151 776.159C759.045 776.159 761.648 776.692 763.959 777.759C766.295 778.8 768.275 780.272 769.9 782.177C771.55 784.056 772.807 786.277 773.67 788.842C774.534 791.381 774.965 794.136 774.965 797.106V797.982C774.965 800.953 774.534 803.708 773.67 806.247C772.807 808.786 771.55 811.008 769.9 812.912C768.275 814.791 766.307 816.264 763.997 817.33C761.712 818.371 759.122 818.891 756.227 818.891C753.333 818.891 750.73 818.371 748.42 817.33C746.109 816.264 744.129 814.791 742.478 812.912C740.853 811.008 739.609 808.786 738.746 806.247C737.882 803.708 737.451 800.953 737.451 797.982ZM744.497 797.106V797.982C744.497 800.039 744.738 801.981 745.22 803.809C745.703 805.612 746.426 807.212 747.391 808.608C748.381 810.005 749.613 811.109 751.086 811.922C752.558 812.709 754.272 813.102 756.227 813.102C758.157 813.102 759.845 812.709 761.293 811.922C762.765 811.109 763.984 810.005 764.949 808.608C765.914 807.212 766.637 805.612 767.12 803.809C767.628 801.981 767.881 800.039 767.881 797.982V797.106C767.881 795.075 767.628 793.158 767.12 791.355C766.637 789.527 765.901 787.915 764.911 786.518C763.946 785.097 762.727 783.979 761.254 783.167C759.807 782.354 758.106 781.948 756.151 781.948C754.221 781.948 752.52 782.354 751.047 783.167C749.6 783.979 748.381 785.097 747.391 786.518C746.426 787.915 745.703 789.527 745.22 791.355C744.738 793.158 744.497 795.075 744.497 797.106ZM810.5 776.921H816.898V817.254C816.898 820.885 816.162 823.982 814.689 826.547C813.216 829.111 811.16 831.054 808.519 832.374C805.904 833.72 802.882 834.392 799.455 834.392C798.033 834.392 796.357 834.164 794.427 833.707C792.523 833.275 790.644 832.526 788.791 831.46C786.962 830.419 785.426 829.01 784.182 827.232L787.877 823.043C789.603 825.125 791.406 826.572 793.285 827.385C795.189 828.197 797.068 828.603 798.921 828.603C801.156 828.603 803.086 828.184 804.711 827.347C806.336 826.509 807.592 825.264 808.481 823.614C809.395 821.989 809.852 819.983 809.852 817.597V785.985L810.5 776.921ZM782.126 797.982V797.182C782.126 794.034 782.494 791.178 783.23 788.613C783.992 786.023 785.071 783.802 786.467 781.948C787.889 780.095 789.603 778.673 791.609 777.682C793.615 776.667 795.875 776.159 798.388 776.159C800.978 776.159 803.238 776.616 805.168 777.53C807.123 778.419 808.773 779.726 810.119 781.453C811.49 783.154 812.569 785.211 813.356 787.623C814.143 790.035 814.689 792.764 814.994 795.811V799.315C814.714 802.337 814.169 805.054 813.356 807.466C812.569 809.878 811.49 811.934 810.119 813.636C808.773 815.337 807.123 816.644 805.168 817.558C803.212 818.447 800.927 818.891 798.312 818.891C795.849 818.891 793.615 818.371 791.609 817.33C789.629 816.289 787.927 814.829 786.505 812.95C785.084 811.071 783.992 808.862 783.23 806.323C782.494 803.759 782.126 800.978 782.126 797.982ZM789.171 797.182V797.982C789.171 800.039 789.375 801.969 789.781 803.771C790.212 805.574 790.86 807.161 791.723 808.532C792.612 809.903 793.742 810.982 795.113 811.769C796.484 812.531 798.122 812.912 800.026 812.912C802.362 812.912 804.292 812.417 805.815 811.427C807.338 810.436 808.545 809.129 809.433 807.504C810.347 805.879 811.058 804.114 811.566 802.21V793.031C811.287 791.635 810.855 790.289 810.271 788.994C809.712 787.674 808.976 786.506 808.062 785.49C807.173 784.449 806.069 783.624 804.749 783.014C803.428 782.405 801.879 782.1 800.102 782.1C798.172 782.1 796.509 782.507 795.113 783.319C793.742 784.106 792.612 785.198 791.723 786.595C790.86 787.966 790.212 789.565 789.781 791.393C789.375 793.196 789.171 795.126 789.171 797.182ZM851.899 811.084V789.87C851.899 788.245 851.569 786.836 850.909 785.642C850.274 784.424 849.309 783.484 848.014 782.824C846.719 782.164 845.12 781.834 843.215 781.834C841.438 781.834 839.877 782.139 838.531 782.748C837.211 783.357 836.17 784.157 835.408 785.147C834.671 786.138 834.303 787.204 834.303 788.347H827.257C827.257 786.874 827.638 785.414 828.4 783.967C829.162 782.519 830.253 781.212 831.675 780.044C833.123 778.85 834.849 777.911 836.855 777.225C838.886 776.514 841.146 776.159 843.634 776.159C846.63 776.159 849.271 776.667 851.556 777.682C853.867 778.698 855.67 780.234 856.964 782.291C858.285 784.322 858.945 786.874 858.945 789.946V809.141C858.945 810.513 859.059 811.972 859.288 813.521C859.542 815.07 859.91 816.403 860.392 817.52V818.13H853.042C852.686 817.317 852.407 816.238 852.204 814.892C852.001 813.521 851.899 812.252 851.899 811.084ZM853.118 793.145L853.194 798.097H846.072C844.066 798.097 842.276 798.262 840.702 798.592C839.128 798.896 837.807 799.366 836.741 800.001C835.674 800.636 834.862 801.435 834.303 802.4C833.745 803.34 833.465 804.444 833.465 805.714C833.465 807.009 833.757 808.189 834.341 809.256C834.925 810.322 835.801 811.173 836.969 811.807C838.163 812.417 839.623 812.722 841.349 812.722C843.507 812.722 845.412 812.264 847.062 811.35C848.712 810.436 850.02 809.319 850.985 807.999C851.975 806.679 852.508 805.396 852.585 804.152L855.593 807.542C855.416 808.608 854.933 809.789 854.146 811.084C853.359 812.379 852.305 813.623 850.985 814.816C849.69 815.984 848.141 816.962 846.338 817.749C844.561 818.511 842.555 818.891 840.321 818.891C837.528 818.891 835.078 818.346 832.97 817.254C830.888 816.162 829.263 814.702 828.095 812.874C826.953 811.02 826.381 808.951 826.381 806.666C826.381 804.457 826.813 802.514 827.676 800.839C828.54 799.138 829.784 797.728 831.409 796.611C833.034 795.469 834.989 794.605 837.274 794.021C839.559 793.437 842.111 793.145 844.929 793.145H853.118ZM877.074 783.395V818.13H870.028V776.921H876.883L877.074 783.395ZM889.947 776.692L889.909 783.243C889.325 783.116 888.766 783.04 888.233 783.014C887.725 782.964 887.141 782.938 886.481 782.938C884.856 782.938 883.421 783.192 882.177 783.7C880.933 784.208 879.879 784.919 879.016 785.833C878.153 786.747 877.467 787.839 876.96 789.108C876.477 790.352 876.16 791.723 876.007 793.222L874.027 794.364C874.027 791.876 874.268 789.54 874.751 787.356C875.258 785.173 876.033 783.243 877.074 781.567C878.115 779.866 879.435 778.546 881.035 777.606C882.66 776.641 884.589 776.159 886.824 776.159C887.332 776.159 887.916 776.222 888.576 776.349C889.236 776.451 889.693 776.565 889.947 776.692Z" fill="#444444"/>
<path d="M1567 791C1567 1219.57 1219.57 1567 790.999 1567C362.426 1567 14.9995 1219.57 14.9995 791C14.9995 362.427 362.426 15.0005 790.999 15.0005C1219.57 15.0005 1567 362.427 1567 791Z" stroke="white" stroke-width="30"/>
<defs>
<filter id="filter0_i_123_1137" x="461.221" y="-0.203979" width="659.56" height="798.939" filterUnits="userSpaceOnUse" color-interpolation-filters="sRGB">
<feFlood flood-opacity="0" result="BackgroundImageFix"/>
<feBlend mode="normal" in="SourceGraphic" in2="BackgroundImageFix" result="shape"/>
<feColorMatrix in="SourceAlpha" type="matrix" values="0 0 0 0 0 0 0 0 0 0 0 0 0 0 0 0 0 0 127 0" result="hardAlpha"/>
<feOffset dy="4"/>
<feGaussianBlur stdDeviation="25"/>
<feComposite in2="hardAlpha" operator="arithmetic" k2="-1" k3="1"/>
<feColorMatrix type="matrix" values="0 0 0 0 0 0 0 0 0 0 0 0 0 0 0 0 0 0 1 0"/>
<feBlend mode="normal" in2="shape" result="effect1_innerShadow_123_1137"/>
</filter>
<filter id="filter1_i_123_1137" x="-1.35352" y="-2.65076" width="794.503" height="799.895" filterUnits="userSpaceOnUse" color-interpolation-filters="sRGB">
<feFlood flood-opacity="0" result="BackgroundImageFix"/>
<feBlend mode="normal" in="SourceGraphic" in2="BackgroundImageFix" result="shape"/>
<feColorMatrix in="SourceAlpha" type="matrix" values="0 0 0 0 0 0 0 0 0 0 0 0 0 0 0 0 0 0 127 0" result="hardAlpha"/>
<feOffset dy="4"/>
<feGaussianBlur stdDeviation="25"/>
<feComposite in2="hardAlpha" operator="arithmetic" k2="-1" k3="1"/>
<feColorMatrix type="matrix" values="0 0 0 0 0 0 0 0 0 0 0 0 0 0 0 0 0 0 1 0"/>
<feBlend mode="normal" in2="shape" result="effect1_innerShadow_123_1137"/>
</filter>
<filter id="filter2_i_123_1137" x="-0.206055" y="460.197" width="794.469" height="663.949" filterUnits="userSpaceOnUse" color-interpolation-filters="sRGB">
<feFlood flood-opacity="0" result="BackgroundImageFix"/>
<feBlend mode="normal" in="SourceGraphic" in2="BackgroundImageFix" result="shape"/>
<feColorMatrix in="SourceAlpha" type="matrix" values="0 0 0 0 0 0 0 0 0 0 0 0 0 0 0 0 0 0 127 0" result="hardAlpha"/>
<feOffset dy="4"/>
<feGaussianBlur stdDeviation="69"/>
<feComposite in2="hardAlpha" operator="arithmetic" k2="-1" k3="1"/>
<feColorMatrix type="matrix" values="0 0 0 0 0 0 0 0 0 0 0 0 0 0 0 0 0 0 0.25 0"/>
<feBlend mode="normal" in2="shape" result="effect1_innerShadow_123_1137"/>
</filter>
<filter id="filter3_i_123_1137" x="-2.65039" y="788.381" width="795.424" height="798.973" filterUnits="userSpaceOnUse" color-interpolation-filters="sRGB">
<feFlood flood-opacity="0" result="BackgroundImageFix"/>
<feBlend mode="normal" in="SourceGraphic" in2="BackgroundImageFix" result="shape"/>
<feColorMatrix in="SourceAlpha" type="matrix" values="0 0 0 0 0 0 0 0 0 0 0 0 0 0 0 0 0 0 127 0" result="hardAlpha"/>
<feOffset dy="4"/>
<feGaussianBlur stdDeviation="25"/>
<feComposite in2="hardAlpha" operator="arithmetic" k2="-1" k3="1"/>
<feColorMatrix type="matrix" values="0 0 0 0 0 0 0 0 0 0 0 0 0 0 0 0 0 0 1 0"/>
<feBlend mode="normal" in2="shape" result="effect1_innerShadow_123_1137"/>
</filter>
<filter id="filter4_i_123_1137" x="461.218" y="787.266" width="659.56" height="798.939" filterUnits="userSpaceOnUse" color-interpolation-filters="sRGB">
<feFlood flood-opacity="0" result="BackgroundImageFix"/>
<feBlend mode="normal" in="SourceGraphic" in2="BackgroundImageFix" result="shape"/>
<feColorMatrix in="SourceAlpha" type="matrix" values="0 0 0 0 0 0 0 0 0 0 0 0 0 0 0 0 0 0 127 0" result="hardAlpha"/>
<feOffset dy="4"/>
<feGaussianBlur stdDeviation="25"/>
<feComposite in2="hardAlpha" operator="arithmetic" k2="-1" k3="1"/>
<feColorMatrix type="matrix" values="0 0 0 0 0 0 0 0 0 0 0 0 0 0 0 0 0 0 1 0"/>
<feBlend mode="normal" in2="shape" result="effect1_innerShadow_123_1137"/>
</filter>
<filter id="filter5_i_123_1137" x="788.849" y="788.757" width="794.503" height="799.895" filterUnits="userSpaceOnUse" color-interpolation-filters="sRGB">
<feFlood flood-opacity="0" result="BackgroundImageFix"/>
<feBlend mode="normal" in="SourceGraphic" in2="BackgroundImageFix" result="shape"/>
<feColorMatrix in="SourceAlpha" type="matrix" values="0 0 0 0 0 0 0 0 0 0 0 0 0 0 0 0 0 0 127 0" result="hardAlpha"/>
<feOffset dy="4"/>
<feGaussianBlur stdDeviation="25"/>
<feComposite in2="hardAlpha" operator="arithmetic" k2="-1" k3="1"/>
<feColorMatrix type="matrix" values="0 0 0 0 0 0 0 0 0 0 0 0 0 0 0 0 0 0 1 0"/>
<feBlend mode="normal" in2="shape" result="effect1_innerShadow_123_1137"/>
</filter>
<filter id="filter6_i_123_1137" x="787.736" y="461.855" width="794.469" height="663.949" filterUnits="userSpaceOnUse" color-interpolation-filters="sRGB">
<feFlood flood-opacity="0" result="BackgroundImageFix"/>
<feBlend mode="normal" in="SourceGraphic" in2="BackgroundImageFix" result="shape"/>
<feColorMatrix in="SourceAlpha" type="matrix" values="0 0 0 0 0 0 0 0 0 0 0 0 0 0 0 0 0 0 127 0" result="hardAlpha"/>
<feOffset dy="4"/>
<feGaussianBlur stdDeviation="25"/>
<feComposite in2="hardAlpha" operator="arithmetic" k2="-1" k3="1"/>
<feColorMatrix type="matrix" values="0 0 0 0 0 0 0 0 0 0 0 0 0 0 0 0 0 0 1 0"/>
<feBlend mode="normal" in2="shape" result="effect1_innerShadow_123_1137"/>
</filter>
<filter id="filter7_i_123_1137" x="789.225" y="-1.35291" width="795.425" height="798.973" filterUnits="userSpaceOnUse" color-interpolation-filters="sRGB">
<feFlood flood-opacity="0" result="BackgroundImageFix"/>
<feBlend mode="normal" in="SourceGraphic" in2="BackgroundImageFix" result="shape"/>
<feColorMatrix in="SourceAlpha" type="matrix" values="0 0 0 0 0 0 0 0 0 0 0 0 0 0 0 0 0 0 127 0" result="hardAlpha"/>
<feOffset dy="4"/>
<feGaussianBlur stdDeviation="25"/>
<feComposite in2="hardAlpha" operator="arithmetic" k2="-1" k3="1"/>
<feColorMatrix type="matrix" values="0 0 0 0 0 0 0 0 0 0 0 0 0 0 0 0 0 0 1 0"/>
<feBlend mode="normal" in2="shape" result="effect1_innerShadow_123_1137"/>
</filter>
<filter id="filter8_d_123_1137" x="676.203" y="1337.86" width="229.592" height="229.592" filterUnits="userSpaceOnUse" color-interpolation-filters="sRGB">
<feFlood flood-opacity="0" result="BackgroundImageFix"/>
<feColorMatrix in="SourceAlpha" type="matrix" values="0 0 0 0 0 0 0 0 0 0 0 0 0 0 0 0 0 0 127 0" result="hardAlpha"/>
<feOffset dy="4"/>
<feGaussianBlur stdDeviation="15"/>
<feComposite in2="hardAlpha" operator="out"/>
<feColorMatrix type="matrix" values="0 0 0 0 0 0 0 0 0 0 0 0 0 0 0 0 0 0 0.75 0"/>
<feBlend mode="normal" in2="BackgroundImageFix" result="effect1_dropShadow_123_1137"/>
<feBlend mode="normal" in="SourceGraphic" in2="effect1_dropShadow_123_1137" result="shape"/>
</filter>
<filter id="filter9_d_123_1137" x="1114.42" y="1126.84" width="229.592" height="229.592" filterUnits="userSpaceOnUse" color-interpolation-filters="sRGB">
<feFlood flood-opacity="0" result="BackgroundImageFix"/>
<feColorMatrix in="SourceAlpha" type="matrix" values="0 0 0 0 0 0 0 0 0 0 0 0 0 0 0 0 0 0 127 0" result="hardAlpha"/>
<feOffset dy="4"/>
<feGaussianBlur stdDeviation="15"/>
<feComposite in2="hardAlpha" operator="out"/>
<feColorMatrix type="matrix" values="0 0 0 0 0 0 0 0 0 0 0 0 0 0 0 0 0 0 0.75 0"/>
<feBlend mode="normal" in2="BackgroundImageFix" result="effect1_dropShadow_123_1137"/>
<feBlend mode="normal" in="SourceGraphic" in2="effect1_dropShadow_123_1137" result="shape"/>
</filter>
<filter id="filter10_d_123_1137" x="1296.96" y="660.138" width="229.592" height="229.593" filterUnits="userSpaceOnUse" color-interpolation-filters="sRGB">
<feFlood flood-opacity="0" result="BackgroundImageFix"/>
<feColorMatrix in="SourceAlpha" type="matrix" values="0 0 0 0 0 0 0 0 0 0 0 0 0 0 0 0 0 0 127 0" result="hardAlpha"/>
<feOffset dy="4"/>
<feGaussianBlur stdDeviation="15"/>
<feComposite in2="hardAlpha" operator="out"/>
<feColorMatrix type="matrix" values="0 0 0 0 0 0 0 0 0 0 0 0 0 0 0 0 0 0 0.75 0"/>
<feBlend mode="normal" in2="BackgroundImageFix" result="effect1_dropShadow_123_1137"/>
<feBlend mode="normal" in="SourceGraphic" in2="effect1_dropShadow_123_1137" result="shape"/>
</filter>
<filter id="filter11_d_123_1137" x="1100.18" y="256.87" width="229.592" height="229.592" filterUnits="userSpaceOnUse" color-interpolation-filters="sRGB">
<feFlood flood-opacity="0" result="BackgroundImageFix"/>
<feColorMatrix in="SourceAlpha" type="matrix" values="0 0 0 0 0 0 0 0 0 0 0 0 0 0 0 0 0 0 127 0" result="hardAlpha"/>
<feOffset dy="4"/>
<feGaussianBlur stdDeviation="15"/>
<feComposite in2="hardAlpha" operator="out"/>
<feColorMatrix type="matrix" values="0 0 0 0 0 0 0 0 0 0 0 0 0 0 0 0 0 0 0.75 0"/>
<feBlend mode="normal" in2="BackgroundImageFix" result="effect1_dropShadow_123_1137"/>
<feBlend mode="normal" in="SourceGraphic" in2="effect1_dropShadow_123_1137" result="shape"/>
</filter>
<filter id="filter12_d_123_1137" x="676.203" y="52.3237" width="229.592" height="229.592" filterUnits="userSpaceOnUse" color-interpolation-filters="sRGB">
<feFlood flood-opacity="0" result="BackgroundImageFix"/>
<feColorMatrix in="SourceAlpha" type="matrix" values="0 0 0 0 0 0 0 0 0 0 0 0 0 0 0 0 0 0 127 0" result="hardAlpha"/>
<feOffset dy="4"/>
<feGaussianBlur stdDeviation="15"/>
<feComposite in2="hardAlpha" operator="out"/>
<feColorMatrix type="matrix" values="0 0 0 0 0 0 0 0 0 0 0 0 0 0 0 0 0 0 0.75 0"/>
<feBlend mode="normal" in2="BackgroundImageFix" result="effect1_dropShadow_123_1137"/>
<feBlend mode="normal" in="SourceGraphic" in2="effect1_dropShadow_123_1137" result="shape"/>
</filter>
<filter id="filter13_d_123_1137" x="221.799" y="238.746" width="229.592" height="229.592" filterUnits="userSpaceOnUse" color-interpolation-filters="sRGB">
<feFlood flood-opacity="0" result="BackgroundImageFix"/>
<feColorMatrix in="SourceAlpha" type="matrix" values="0 0 0 0 0 0 0 0 0 0 0 0 0 0 0 0 0 0 127 0" result="hardAlpha"/>
<feOffset dy="4"/>
<feGaussianBlur stdDeviation="15"/>
<feComposite in2="hardAlpha" operator="out"/>
<feColorMatrix type="matrix" values="0 0 0 0 0 0 0 0 0 0 0 0 0 0 0 0 0 0 0.75 0"/>
<feBlend mode="normal" in2="BackgroundImageFix" result="effect1_dropShadow_123_1137"/>
<feBlend mode="normal" in="SourceGraphic" in2="effect1_dropShadow_123_1137" result="shape"/>
</filter>
<filter id="filter14_d_123_1137" x="52.2065" y="680.204" width="229.592" height="229.593" filterUnits="userSpaceOnUse" color-interpolation-filters="sRGB">
<feFlood flood-opacity="0" result="BackgroundImageFix"/>
<feColorMatrix in="SourceAlpha" type="matrix" values="0 0 0 0 0 0 0 0 0 0 0 0 0 0 0 0 0 0 127 0" result="hardAlpha"/>
<feOffset dy="4"/>
<feGaussianBlur stdDeviation="15"/>
<feComposite in2="hardAlpha" operator="out"/>
<feColorMatrix type="matrix" values="0 0 0 0 0 0 0 0 0 0 0 0 0 0 0 0 0 0 0.75 0"/>
<feBlend mode="normal" in2="BackgroundImageFix" result="effect1_dropShadow_123_1137"/>
<feBlend mode="normal" in="SourceGraphic" in2="effect1_dropShadow_123_1137" result="shape"/>
</filter>
<filter id="filter15_d_123_1137" x="204.322" y="1121.66" width="229.592" height="229.593" filterUnits="userSpaceOnUse" color-interpolation-filters="sRGB">
<feFlood flood-opacity="0" result="BackgroundImageFix"/>
<feColorMatrix in="SourceAlpha" type="matrix" values="0 0 0 0 0 0 0 0 0 0 0 0 0 0 0 0 0 0 127 0" result="hardAlpha"/>
<feOffset dy="4"/>
<feGaussianBlur stdDeviation="15"/>
<feComposite in2="hardAlpha" operator="out"/>
<feColorMatrix type="matrix" values="0 0 0 0 0 0 0 0 0 0 0 0 0 0 0 0 0 0 0.75 0"/>
<feBlend mode="normal" in2="BackgroundImageFix" result="effect1_dropShadow_123_1137"/>
<feBlend mode="normal" in="SourceGraphic" in2="effect1_dropShadow_123_1137" result="shape"/>
</filter>
<filter id="filter16_d_123_1137" x="634.129" y="638.13" width="313.741" height="313.741" filterUnits="userSpaceOnUse" color-interpolation-filters="sRGB">
<feFlood flood-opacity="0" result="BackgroundImageFix"/>
<feColorMatrix in="SourceAlpha" type="matrix" values="0 0 0 0 0 0 0 0 0 0 0 0 0 0 0 0 0 0 127 0" result="hardAlpha"/>
<feOffset dy="4"/>
<feGaussianBlur stdDeviation="15"/>
<feComposite in2="hardAlpha" operator="out"/>
<feColorMatrix type="matrix" values="0 0 0 0 0 0 0 0 0 0 0 0 0 0 0 0 0 0 0.75 0"/>
<feBlend mode="normal" in2="BackgroundImageFix" result="effect1_dropShadow_123_1137"/>
<feBlend mode="normal" in="SourceGraphic" in2="effect1_dropShadow_123_1137" result="shape"/>
</filter>
</defs>
</svg>
