<svg width="2444" height="2444" viewBox="0 0 2444 2444" fill="none" xmlns="http://www.w3.org/2000/svg">
<mask id="mask0_269_377" style="mask-type:alpha" maskUnits="userSpaceOnUse" x="0" y="0" width="2444" height="2444">
<circle cx="1222" cy="1222" r="1222" fill="#D9D9D9"/>
</mask>
<g mask="url(#mask0_269_377)">
<ellipse cx="1221" cy="1221.72" rx="1" ry="1.00059" fill="#23AA8D"/>
<g filter="url(#filter0_i_269_377)">
<path d="M1221 1221.72L716 2.00195H1222H1728L1221 1221.72Z" fill="#23AA8D"/>
</g>
<path d="M1221 1221.72L716 2.00195H1222H1728L1221 1221.72Z" stroke="#23AA8D" stroke-width="3"/>
<g filter="url(#filter1_i_269_377)">
<path d="M1221.05 1221.19L2 716.016L717.592 0.000528589L1221.05 1221.19Z" fill="white"/>
</g>
<path d="M1221.05 1221.19L2 716.016L717.592 0.000528589L1221.05 1221.19Z" stroke="#23AA8D" stroke-width="3"/>
<g filter="url(#filter2_i_269_377)">
<path d="M1221 1221.72L2 1727.02L2 714.421L1221 1221.72Z" fill="#23AA8D"/>
</g>
<path d="M1221 1221.72L2 1727.02L2 714.421L1221 1221.72Z" stroke="#23AA8D" stroke-width="3"/>
<g filter="url(#filter3_i_269_377)">
<path d="M1220.47 1222.23L715.592 2442L-2.75435e-05 1725.98L1220.47 1222.23Z" fill="white"/>
</g>
<path d="M1220.47 1222.23L715.592 2442L-2.75435e-05 1725.98L1220.47 1222.23Z" stroke="#23AA8D" stroke-width="3"/>
<ellipse cx="1223" cy="1222.28" rx="1" ry="1.00059" transform="rotate(-180 1223 1222.28)" fill="#23AA8D"/>
<g filter="url(#filter4_i_269_377)">
<path d="M1223 1222.28L1728 2442L716 2442L1223 1222.28Z" fill="#23AA8D"/>
</g>
<path d="M1223 1222.28L1728 2442L716 2442L1223 1222.28Z" stroke="#23AA8D" stroke-width="3"/>
<g filter="url(#filter5_i_269_377)">
<path d="M1222.95 1222.81L2442 1727.98L1726.41 2444L1222.95 1222.81Z" fill="white"/>
</g>
<path d="M1222.95 1222.81L2442 1727.98L1726.41 2444L1222.95 1222.81Z" stroke="#23AA8D" stroke-width="3"/>
<g filter="url(#filter6_i_269_377)">
<path d="M1223 1222.28L2442 716.98L2442 1729.58L1223 1222.28Z" fill="#23AA8D"/>
</g>
<path d="M1223 1222.28L2442 716.98L2442 1729.58L1223 1222.28Z" stroke="#23AA8D" stroke-width="3"/>
<g filter="url(#filter7_i_269_377)">
<path d="M1223.53 1221.77L1728.41 2.00195L2444 718.017L1223.53 1221.77Z" fill="white"/>
</g>
<path d="M1223.53 1221.77L1728.41 2.00195L2444 718.017L1223.53 1221.77Z" stroke="#23AA8D" stroke-width="3"/>
</g>
<g filter="url(#filter8_d_269_377)">
<circle cx="1222" cy="2238" r="131" fill="#23AA8D"/>
</g>
<path d="M1249.45 2253.76C1245.45 2253.13 1241.8 2251.59 1238.5 2249.16C1235.21 2246.76 1232.61 2243.75 1230.7 2240.12C1228.75 2236.52 1227.78 2232.63 1227.78 2228.44C1227.78 2223.68 1228.99 2219.28 1231.43 2215.24C1233.82 2211.24 1237.08 2208.05 1241.2 2205.7C1245.32 2203.34 1249.81 2202.16 1254.68 2202.16C1259.54 2202.16 1264.03 2203.34 1268.15 2205.7C1272.27 2208.05 1275.55 2211.24 1277.98 2215.24C1280.37 2219.25 1281.57 2223.61 1281.57 2228.32C1281.57 2233.12 1280.19 2237.81 1277.42 2242.42L1253.55 2282.34H1244.79L1262.82 2252.36C1259.79 2253.52 1256.72 2254.1 1253.61 2254.1C1252.22 2254.1 1250.84 2253.99 1249.45 2253.76ZM1254.68 2209.35C1251.19 2209.35 1247.97 2210.21 1245.02 2211.93C1242.02 2213.65 1239.66 2215.97 1237.94 2218.89C1236.18 2221.85 1235.3 2225.05 1235.3 2228.49C1235.3 2231.94 1236.18 2235.12 1237.94 2238.04C1239.66 2240.96 1242.02 2243.28 1245.02 2245C1247.97 2246.72 1251.19 2247.58 1254.68 2247.58C1258.16 2247.58 1261.39 2246.72 1264.39 2245C1267.35 2243.28 1269.71 2240.94 1271.46 2237.98C1273.19 2235.06 1274.05 2231.88 1274.05 2228.44C1274.05 2224.99 1273.19 2221.79 1271.46 2218.83C1269.71 2215.92 1267.35 2213.59 1264.39 2211.87C1261.43 2210.19 1258.19 2209.35 1254.68 2209.35ZM1188.75 2255.95C1184.04 2255.95 1179.73 2254.77 1175.84 2252.41C1171.91 2250.09 1168.82 2246.91 1166.57 2242.87C1164.29 2238.83 1163.15 2234.37 1163.15 2229.5C1163.15 2224.56 1164.38 2220 1166.85 2215.8C1169.29 2211.65 1172.6 2208.33 1176.79 2205.86C1180.98 2203.39 1185.59 2202.16 1190.61 2202.16C1194.95 2202.16 1198.99 2203.13 1202.73 2205.08C1206.48 2207.02 1209.62 2209.72 1212.17 2213.16C1214.71 2216.61 1216.47 2220.52 1217.45 2224.9L1210.26 2226.86C1209.55 2223.5 1208.31 2220.46 1206.55 2217.77C1204.79 2215.11 1202.57 2213.01 1199.87 2211.48C1197.14 2209.94 1194.05 2209.18 1190.61 2209.18C1186.94 2209.18 1183.61 2210.09 1180.61 2211.93C1177.62 2213.8 1175.26 2216.29 1173.54 2219.4C1171.81 2222.5 1170.95 2225.89 1170.95 2229.56C1170.95 2233.19 1171.74 2236.49 1173.31 2239.44C1174.88 2242.4 1177.11 2244.72 1179.99 2246.41C1182.84 2248.13 1186.09 2248.99 1189.76 2248.99C1193.21 2248.99 1196.48 2248.15 1199.59 2246.46C1202.66 2244.81 1205.24 2242.46 1207.34 2239.39L1214.98 2241.52L1207.73 2282.34H1166.97V2275.21H1201.61L1206.22 2249.04C1200.9 2253.65 1195.08 2255.95 1188.75 2255.95Z" fill="white"/>
<g filter="url(#filter9_d_269_377)">
<circle cx="1899" cy="1912" r="131" fill="white"/>
</g>
<path d="M1934.01 1903.79C1930.68 1907.13 1926.8 1909.34 1922.38 1910.42C1917.96 1911.56 1913.53 1911.5 1909.08 1910.23C1904.61 1908.98 1900.65 1906.64 1897.21 1903.2C1893.71 1899.7 1891.36 1895.6 1890.14 1890.89C1888.92 1886.23 1888.92 1881.54 1890.14 1876.83C1891.36 1872.12 1893.74 1867.99 1897.29 1864.44C1900.36 1861.37 1903.9 1859.2 1907.93 1857.93C1911.95 1856.66 1916.08 1856.34 1920.32 1856.98C1924.55 1857.62 1928.56 1859.14 1932.35 1861.55L1928.65 1868.02C1925.77 1866.14 1922.75 1864.87 1919.6 1864.21C1916.48 1863.57 1913.42 1863.66 1910.43 1864.48C1907.41 1865.33 1904.68 1866.97 1902.25 1869.41C1899.66 1872 1897.95 1875.01 1897.13 1878.42C1896.33 1881.86 1896.43 1885.29 1897.41 1888.7C1898.38 1892.12 1900.17 1895.12 1902.77 1897.72C1905.33 1900.29 1908.22 1902.06 1911.42 1903.04C1914.62 1904.02 1917.84 1904.08 1921.07 1903.24C1924.3 1902.44 1927.21 1900.75 1929.81 1898.15C1932.24 1895.72 1933.96 1892.81 1934.97 1889.42C1935.97 1886.08 1936.13 1882.59 1935.44 1878.94L1942.35 1875.05L1966.1 1909.03L1937.27 1937.86L1932.23 1932.82L1956.73 1908.32L1941.48 1886.56C1940.98 1893.58 1938.49 1899.32 1934.01 1903.79ZM1851.07 1910.66C1856.12 1905.61 1861.58 1903.04 1867.43 1902.96C1873.28 1902.93 1878.93 1904.48 1884.38 1907.6C1889.81 1910.75 1894.89 1914.7 1899.63 1919.44C1904.39 1924.2 1908.36 1929.28 1911.54 1934.68C1914.74 1940.11 1916.36 1945.7 1916.38 1951.44C1916.41 1957.24 1913.98 1962.58 1909.08 1967.48C1904.53 1972.03 1899.4 1974.43 1893.71 1974.67C1888.02 1974.91 1882.32 1973.52 1876.6 1970.5C1870.86 1967.51 1865.44 1963.47 1860.36 1958.39C1855.36 1953.39 1851.36 1948.06 1848.37 1942.43C1845.38 1936.79 1843.97 1931.18 1844.16 1925.59C1844.35 1920.06 1846.65 1915.08 1851.07 1910.66ZM1856.35 1915.7C1853.07 1918.99 1851.51 1922.75 1851.66 1926.98C1851.82 1931.27 1853.23 1935.61 1855.87 1940C1858.52 1944.45 1861.92 1948.75 1866.08 1952.91C1870.31 1957.14 1874.65 1960.56 1879.1 1963.15C1883.52 1965.77 1887.89 1967.12 1892.2 1967.2C1896.52 1967.28 1900.38 1965.61 1903.8 1962.2C1908.96 1957.04 1910.3 1951.15 1907.81 1944.53C1905.35 1937.94 1900.83 1931.36 1894.27 1924.8C1887.73 1918.26 1881.11 1913.76 1874.42 1911.3C1867.72 1908.89 1861.7 1910.36 1856.35 1915.7Z" fill="#23AA8D"/>
<g filter="url(#filter10_d_269_377)">
<circle cx="2181" cy="1191" r="131" fill="#23AA8D"/>
</g>
<path d="M2145.16 1158.59C2145.16 1153.28 2146.11 1148.52 2148.02 1144.33C2149.93 1140.14 2152.72 1136.85 2156.39 1134.45C2160.09 1132.09 2164.51 1130.91 2169.64 1130.91L2170.03 1138.27C2166.4 1138.27 2163.24 1139.11 2160.54 1140.79C2157.89 1142.52 2155.85 1144.91 2154.42 1147.98C2153 1151.09 2152.29 1154.66 2152.29 1158.71C2152.29 1162.56 2152.94 1166.03 2154.25 1169.1C2155.6 1172.16 2157.55 1174.56 2160.09 1176.28C2162.64 1178.04 2165.63 1178.92 2169.08 1178.92C2175.18 1178.92 2179.3 1176.6 2181.43 1171.96C2183.57 1167.32 2184.61 1161.59 2184.58 1154.78H2190.98C2190.94 1160.99 2191.99 1165.86 2194.12 1169.38C2196.29 1172.89 2199.91 1174.65 2204.96 1174.65C2207.77 1174.65 2210.22 1173.94 2212.32 1172.52C2214.45 1171.14 2216.1 1169.21 2217.26 1166.74C2218.42 1164.3 2219 1161.55 2219 1158.48C2219 1155.23 2218.38 1152.34 2217.15 1149.83C2215.91 1147.33 2214.15 1145.38 2211.87 1144C2209.58 1142.61 2206.93 1141.92 2203.89 1141.92L2204.34 1134.62C2208.76 1134.62 2212.62 1135.65 2215.91 1137.71C2219.2 1139.8 2221.73 1142.65 2223.49 1146.24C2225.29 1149.83 2226.19 1153.88 2226.19 1158.37C2226.19 1162.68 2225.32 1166.62 2223.6 1170.22C2221.92 1173.85 2219.52 1176.73 2216.42 1178.87C2213.35 1181 2209.81 1182.07 2205.8 1182.07C2201.12 1182.07 2197.34 1180.63 2194.46 1177.74C2191.58 1174.86 2189.52 1171.06 2188.28 1166.34C2187.23 1172.3 2185.06 1177.11 2181.77 1180.77C2178.51 1184.44 2174.08 1186.28 2168.46 1186.28C2163.67 1186.28 2159.51 1185.06 2156 1182.63C2152.48 1180.19 2149.78 1176.88 2147.91 1172.69C2146.07 1168.5 2145.16 1163.8 2145.16 1158.59ZM2145.16 1224.29C2145.16 1217.14 2147.2 1211.47 2151.28 1207.28C2155.4 1203.12 2160.49 1200.22 2166.55 1198.58C2172.62 1196.97 2179 1196.16 2185.7 1196.16C2192.44 1196.16 2198.84 1196.95 2204.9 1198.52C2211.01 1200.09 2216.1 1202.9 2220.18 1206.94C2224.3 1211.02 2226.35 1216.53 2226.35 1223.45C2226.35 1229.89 2224.43 1235.21 2220.57 1239.4C2216.71 1243.59 2211.7 1246.64 2205.52 1248.55C2199.34 1250.5 2192.66 1251.47 2185.48 1251.47C2178.4 1251.47 2171.81 1250.53 2165.71 1248.66C2159.61 1246.79 2154.65 1243.82 2150.83 1239.73C2147.05 1235.69 2145.16 1230.54 2145.16 1224.29ZM2152.46 1224.12C2152.46 1228.77 2154.01 1232.53 2157.12 1235.41C2160.26 1238.33 2164.32 1240.41 2169.3 1241.64C2174.32 1242.92 2179.77 1243.55 2185.64 1243.55C2191.63 1243.55 2197.12 1242.9 2202.1 1241.59C2207.08 1240.32 2211.12 1238.18 2214.23 1235.19C2217.33 1232.19 2218.89 1228.28 2218.89 1223.45C2218.89 1216.15 2215.67 1211.04 2209.23 1208.12C2202.83 1205.2 2194.98 1203.74 2185.7 1203.74C2176.45 1203.74 2168.59 1205.24 2162.12 1208.23C2155.68 1211.27 2152.46 1216.56 2152.46 1224.12Z" fill="white"/>
<g filter="url(#filter11_d_269_377)">
<circle cx="1877" cy="568" r="131" fill="white"/>
</g>
<path d="M1892.21 520.078L1836.1 576.182L1830.74 570.822L1873.55 528.019L1859.45 513.923L1863.7 509.675L1873.23 519.204C1874.82 520.793 1876.34 521.653 1877.79 521.785C1879.25 521.918 1880.72 521.243 1882.2 519.76L1887.05 514.916L1892.21 520.078ZM1875.13 616.404C1870.08 611.348 1867.51 605.895 1867.43 600.045C1867.41 594.195 1868.95 588.544 1872.08 583.091C1875.23 577.664 1879.17 572.582 1883.91 567.844C1888.67 563.079 1893.76 559.109 1899.16 555.932C1904.58 552.729 1910.17 551.114 1915.91 551.088C1921.71 551.062 1927.06 553.497 1931.95 558.394C1936.51 562.947 1938.9 568.069 1939.14 573.76C1939.38 579.451 1937.99 585.155 1934.97 590.873C1931.98 596.617 1927.94 602.03 1922.86 607.113C1917.86 612.116 1912.54 616.113 1906.9 619.104C1901.26 622.095 1895.65 623.498 1890.06 623.313C1884.53 623.127 1879.56 620.824 1875.13 616.404ZM1880.18 611.123C1883.46 614.405 1887.22 615.967 1891.45 615.808C1895.74 615.649 1900.08 614.247 1904.48 611.599C1908.92 608.952 1913.23 605.551 1917.38 601.395C1921.62 597.16 1925.03 592.819 1927.63 588.372C1930.25 583.951 1931.6 579.583 1931.68 575.269C1931.75 570.954 1930.09 567.089 1926.67 563.675C1921.51 558.513 1915.62 557.176 1909 559.664C1902.41 562.126 1895.83 566.639 1889.27 573.204C1882.73 579.742 1878.23 586.36 1875.77 593.057C1873.36 599.754 1874.83 605.776 1880.18 611.123Z" fill="#00A79D"/>
<g filter="url(#filter12_d_269_377)">
<circle cx="1222" cy="252" r="131" fill="#23AA8D"/>
</g>
<path d="M1222.06 298.842C1214.91 298.842 1209.24 296.802 1205.05 292.722C1200.89 288.604 1197.99 283.513 1196.34 277.448C1194.73 271.384 1193.93 265.001 1193.93 258.3C1193.93 251.562 1194.72 245.161 1196.29 239.096C1197.86 232.994 1200.67 227.903 1204.71 223.823C1208.79 219.705 1214.29 217.646 1221.22 217.646C1227.66 217.646 1232.97 219.574 1237.17 223.43C1241.36 227.285 1244.41 232.302 1246.32 238.479C1248.27 244.655 1249.24 251.337 1249.24 258.525C1249.24 265.6 1248.3 272.189 1246.43 278.291C1244.56 284.392 1241.58 289.353 1237.5 293.171C1233.46 296.952 1228.31 298.842 1222.06 298.842ZM1221.89 291.542C1226.53 291.542 1230.3 289.989 1233.18 286.882C1236.1 283.737 1238.18 279.676 1239.41 274.697C1240.69 269.681 1241.32 264.234 1241.32 258.356C1241.32 252.367 1240.67 246.883 1239.36 241.904C1238.08 236.925 1235.95 232.882 1232.96 229.775C1229.96 226.668 1226.05 225.114 1221.22 225.114C1213.92 225.114 1208.81 228.334 1205.89 234.772C1202.97 241.174 1201.51 249.016 1201.51 258.3C1201.51 267.547 1203.01 275.408 1206 281.884C1209.03 288.323 1214.33 291.542 1221.89 291.542Z" fill="white"/>
<g filter="url(#filter13_d_269_377)">
<circle cx="520" cy="540" r="131" fill="white"/>
</g>
<path d="M450.033 548.014L506.137 604.118L500.777 609.479L457.974 566.676L443.879 580.772L439.63 576.523L449.16 566.994C450.748 565.405 451.608 563.883 451.741 562.427C451.873 560.972 451.198 559.502 449.716 558.02L444.872 553.176L450.033 548.014ZM546.359 565.088C541.303 570.144 535.851 572.711 530.001 572.791C524.151 572.817 518.499 571.269 513.046 568.145C507.62 564.995 502.537 561.051 497.799 556.313C493.035 551.548 489.064 546.466 485.888 541.066C482.685 535.639 481.07 530.054 481.043 524.31C481.017 518.513 483.452 513.166 488.349 508.269C492.902 503.716 498.024 501.32 503.715 501.082C509.407 500.844 515.111 502.234 520.829 505.251C526.573 508.242 531.986 512.279 537.068 517.361C542.071 522.364 546.068 527.685 549.059 533.323C552.05 538.961 553.453 544.573 553.268 550.158C553.083 555.691 550.78 560.667 546.359 565.088ZM541.078 560.045C544.361 556.763 545.923 553.004 545.764 548.769C545.605 544.48 544.202 540.139 541.555 535.745C538.908 531.298 535.506 526.997 531.351 522.841C527.115 518.606 522.774 515.191 518.327 512.597C513.907 509.976 509.539 508.626 505.224 508.547C500.91 508.467 497.045 510.135 493.63 513.55C488.468 518.712 487.132 524.601 489.62 531.219C492.082 537.81 496.595 544.388 503.16 550.953C509.698 557.491 516.315 561.991 523.012 564.452C529.709 566.861 535.731 565.392 541.078 560.045ZM591.703 519.744C586.647 524.8 581.194 527.367 575.344 527.447C569.495 527.473 563.843 525.925 558.39 522.801C552.964 519.651 547.881 515.707 543.143 510.969C538.378 506.204 534.408 501.122 531.231 495.722C528.029 490.295 526.414 484.71 526.387 478.966C526.361 473.169 528.796 467.822 533.693 462.925C538.246 458.372 543.368 455.976 549.059 455.738C554.75 455.5 560.455 456.89 566.172 459.907C571.917 462.899 577.33 466.935 582.412 472.018C587.415 477.02 591.412 482.341 594.403 487.979C597.394 493.617 598.797 499.229 598.612 504.814C598.427 510.347 596.124 515.323 591.703 519.744ZM586.422 514.701C589.705 511.419 591.266 507.66 591.108 503.425C590.949 499.137 589.546 494.795 586.899 490.401C584.252 485.954 580.85 481.653 576.694 477.497C572.459 473.262 568.118 469.847 563.671 467.253C559.25 464.632 554.883 463.282 550.568 463.203C546.253 463.124 542.389 464.791 538.974 468.206C533.812 473.368 532.476 479.257 534.964 485.875C537.426 492.466 541.939 499.044 548.503 505.609C555.042 512.147 561.659 516.647 568.356 519.109C575.053 521.517 581.075 520.048 586.422 514.701Z" fill="#23AA8D"/>
<g filter="url(#filter14_d_269_377)">
<circle cx="258" cy="1222" r="131" fill="#23AA8D"/>
</g>
<path d="M212.814 1253.89C212.814 1249.02 213.994 1244.53 216.352 1240.41C218.71 1236.29 221.892 1233.04 225.898 1230.64C229.903 1228.21 234.265 1226.99 238.981 1226.99C243.773 1226.99 248.471 1228.38 253.076 1231.15L293 1255.01L293 1263.77L263.015 1245.75C264.175 1248.78 264.755 1251.85 264.755 1254.96C264.755 1256.3 264.643 1257.69 264.418 1259.11C263.782 1263.12 262.266 1266.77 259.87 1270.06C257.437 1273.36 254.423 1275.98 250.83 1277.92C247.198 1279.83 243.286 1280.79 239.094 1280.79C234.34 1280.79 229.96 1279.59 225.954 1277.19C221.911 1274.76 218.71 1271.48 216.352 1267.37C213.994 1263.25 212.814 1258.76 212.814 1253.89ZM258.242 1253.89C258.242 1250.41 257.381 1247.19 255.659 1244.23C253.937 1241.24 251.616 1238.88 248.696 1237.16C245.738 1235.4 242.538 1234.52 239.094 1234.52C235.65 1234.52 232.468 1235.4 229.548 1237.16C226.59 1238.88 224.27 1241.22 222.585 1244.17C220.863 1247.13 220.002 1250.37 220.002 1253.89C220.002 1257.37 220.863 1260.61 222.585 1263.6C224.307 1266.56 226.647 1268.92 229.604 1270.68C232.524 1272.4 235.706 1273.26 239.15 1273.26C242.594 1273.26 245.776 1272.4 248.696 1270.68C251.616 1268.92 253.937 1266.56 255.659 1263.6C257.381 1260.61 258.242 1257.37 258.242 1253.89ZM293.842 1189.88C293.842 1197.03 291.802 1202.7 287.722 1206.89C283.604 1211.04 278.513 1213.95 272.448 1215.59C266.384 1217.2 260.001 1218.01 253.3 1218.01C246.562 1218.01 240.161 1217.22 234.096 1215.65C227.994 1214.08 222.903 1211.27 218.823 1207.23C214.705 1203.15 212.646 1197.64 212.646 1190.72C212.646 1184.28 214.574 1178.96 218.43 1174.77C222.285 1170.58 227.302 1167.53 233.479 1165.62C239.655 1163.67 246.337 1162.7 253.525 1162.7C260.6 1162.7 267.189 1163.63 273.291 1165.51C279.392 1167.38 284.353 1170.35 288.171 1174.43C291.952 1178.48 293.842 1183.62 293.842 1189.88ZM286.542 1190.04C286.542 1185.4 284.989 1181.64 281.882 1178.76C278.737 1175.84 274.676 1173.76 269.697 1172.52C264.681 1171.25 259.234 1170.62 253.356 1170.62C247.367 1170.62 241.883 1171.27 236.904 1172.58C231.925 1173.85 227.882 1175.99 224.775 1178.98C221.668 1181.98 220.114 1185.89 220.114 1190.72C220.114 1198.02 223.334 1203.13 229.772 1206.05C236.174 1208.97 244.016 1210.43 253.3 1210.43C262.547 1210.43 270.408 1208.93 276.884 1205.94C283.323 1202.9 286.542 1197.61 286.542 1190.04Z" fill="white"/>
<g filter="url(#filter15_d_269_377)">
<circle cx="493" cy="1904" r="131" fill="white"/>
</g>
<path d="M541.494 1902.01C544.777 1905.29 547.239 1909 548.88 1913.13C550.494 1917.23 550.971 1921.38 550.309 1925.59C549.594 1929.8 547.503 1933.64 544.036 1937.11C540.515 1940.63 536.492 1942.72 531.965 1943.38C527.412 1944.07 522.965 1943.33 518.624 1941.16C519.842 1944.6 520.04 1948.05 519.22 1951.52C518.373 1954.96 516.559 1958.07 513.78 1960.85C510.895 1963.74 507.652 1965.5 504.052 1966.13C500.452 1966.77 496.905 1966.45 493.411 1965.18C489.89 1963.88 486.793 1961.9 484.12 1959.22C481.234 1956.34 479.196 1953.11 478.005 1949.54C476.787 1945.99 476.562 1942.43 477.33 1938.86C478.098 1935.28 479.898 1932.08 482.73 1929.25C485.404 1926.57 488.487 1924.84 491.981 1924.04C495.449 1923.28 498.864 1923.52 502.226 1924.76C500.081 1920.34 499.38 1915.91 500.121 1911.46C500.862 1907.01 502.967 1903.05 506.434 1899.59C509.928 1896.09 513.78 1893.99 517.989 1893.27C522.197 1892.56 526.353 1893.01 530.456 1894.62C534.533 1896.26 538.212 1898.73 541.494 1902.01ZM508.618 1934.41C506.633 1932.42 504.449 1931.06 502.067 1930.32C499.658 1929.6 497.262 1929.56 494.88 1930.2C492.471 1930.81 490.287 1932.09 488.329 1934.05C486.317 1936.06 484.993 1938.29 484.358 1940.72C483.696 1943.13 483.749 1945.54 484.517 1947.95C485.231 1950.36 486.581 1952.55 488.567 1954.54C490.393 1956.37 492.484 1957.69 494.84 1958.51C497.17 1959.36 499.565 1959.53 502.027 1959.03C504.436 1958.52 506.659 1957.25 508.698 1955.21C510.762 1953.15 512.139 1950.9 512.827 1948.46C513.515 1946.03 513.515 1943.59 512.827 1941.16C512.086 1938.72 510.683 1936.47 508.618 1934.41ZM536.849 1906.73C534.414 1904.3 531.727 1902.51 528.789 1901.37C525.824 1900.26 522.833 1900.02 519.815 1900.66C516.771 1901.27 513.939 1902.88 511.318 1905.5C508.909 1907.91 507.361 1910.6 506.673 1913.56C505.958 1916.55 506.13 1919.56 507.189 1922.58C508.195 1925.59 509.995 1928.4 512.589 1930.99C515.209 1933.61 518.042 1935.44 521.086 1936.47C524.103 1937.53 527.095 1937.72 530.059 1937.03C533.024 1936.34 535.711 1934.79 538.119 1932.38C540.74 1929.76 542.368 1926.92 543.003 1923.85C543.586 1920.78 543.321 1917.76 542.209 1914.79C541.044 1911.83 539.258 1909.14 536.849 1906.73ZM495.674 1856.19C500.73 1861.24 503.298 1866.7 503.377 1872.55C503.403 1878.4 501.855 1884.05 498.731 1889.5C495.581 1894.93 491.637 1900.01 486.899 1904.75C482.134 1909.51 477.052 1913.48 471.652 1916.66C466.226 1919.86 460.64 1921.48 454.896 1921.5C449.099 1921.53 443.752 1919.09 438.855 1914.2C434.302 1909.65 431.907 1904.52 431.668 1898.83C431.43 1893.14 432.82 1887.44 435.838 1881.72C438.829 1875.97 442.866 1870.56 447.948 1865.48C452.951 1860.48 458.271 1856.48 463.91 1853.49C469.548 1850.5 475.159 1849.09 480.745 1849.28C486.277 1849.46 491.254 1851.77 495.674 1856.19ZM490.631 1861.47C487.349 1858.19 483.59 1856.62 479.355 1856.78C475.067 1856.94 470.726 1858.35 466.332 1860.99C461.885 1863.64 457.583 1867.04 453.427 1871.2C449.192 1875.43 445.777 1879.77 443.183 1884.22C440.563 1888.64 439.213 1893.01 439.133 1897.32C439.054 1901.64 440.721 1905.5 444.136 1908.92C449.298 1914.08 455.188 1915.42 461.805 1912.93C468.396 1910.47 474.974 1905.95 481.539 1899.39C488.077 1892.85 492.577 1886.23 495.039 1879.53C497.448 1872.84 495.978 1866.82 490.631 1861.47Z" fill="#23AA8D"/>
<g filter="url(#filter16_d_269_377)">
<circle cx="1222" cy="1222" r="196" fill="white"/>
</g>
<circle cx="1222" cy="1222" r="1207" stroke="white" stroke-width="30"/>
<defs>
<filter id="filter0_i_269_377" x="713.755" y="0.501953" width="1016.49" height="1229.13" filterUnits="userSpaceOnUse" color-interpolation-filters="sRGB">
<feFlood flood-opacity="0" result="BackgroundImageFix"/>
<feBlend mode="normal" in="SourceGraphic" in2="BackgroundImageFix" result="shape"/>
<feColorMatrix in="SourceAlpha" type="matrix" values="0 0 0 0 0 0 0 0 0 0 0 0 0 0 0 0 0 0 127 0" result="hardAlpha"/>
<feOffset dy="4"/>
<feGaussianBlur stdDeviation="25"/>
<feComposite in2="hardAlpha" operator="arithmetic" k2="-1" k3="1"/>
<feColorMatrix type="matrix" values="0 0 0 0 0 0 0 0 0 0 0 0 0 0 0 0 0 0 1 0"/>
<feBlend mode="normal" in2="shape" result="effect1_innerShadow_269_377"/>
</filter>
<filter id="filter1_i_269_377" x="-0.647461" y="-2.65039" width="1224.46" height="1230.61" filterUnits="userSpaceOnUse" color-interpolation-filters="sRGB">
<feFlood flood-opacity="0" result="BackgroundImageFix"/>
<feBlend mode="normal" in="SourceGraphic" in2="BackgroundImageFix" result="shape"/>
<feColorMatrix in="SourceAlpha" type="matrix" values="0 0 0 0 0 0 0 0 0 0 0 0 0 0 0 0 0 0 127 0" result="hardAlpha"/>
<feOffset dy="4"/>
<feGaussianBlur stdDeviation="25"/>
<feComposite in2="hardAlpha" operator="arithmetic" k2="-1" k3="1"/>
<feColorMatrix type="matrix" values="0 0 0 0 0 0 0 0 0 0 0 0 0 0 0 0 0 0 1 0"/>
<feBlend mode="normal" in2="shape" result="effect1_innerShadow_269_377"/>
</filter>
<filter id="filter2_i_269_377" x="0.5" y="712.172" width="1224.41" height="1021.09" filterUnits="userSpaceOnUse" color-interpolation-filters="sRGB">
<feFlood flood-opacity="0" result="BackgroundImageFix"/>
<feBlend mode="normal" in="SourceGraphic" in2="BackgroundImageFix" result="shape"/>
<feColorMatrix in="SourceAlpha" type="matrix" values="0 0 0 0 0 0 0 0 0 0 0 0 0 0 0 0 0 0 127 0" result="hardAlpha"/>
<feOffset dy="4"/>
<feGaussianBlur stdDeviation="69"/>
<feComposite in2="hardAlpha" operator="arithmetic" k2="-1" k3="1"/>
<feColorMatrix type="matrix" values="0 0 0 0 0 0 0 0 0 0 0 0 0 0 0 0 0 0 0.25 0"/>
<feBlend mode="normal" in2="shape" result="effect1_innerShadow_269_377"/>
</filter>
<filter id="filter3_i_269_377" x="-2.6499" y="1219.46" width="1225.88" height="1229.19" filterUnits="userSpaceOnUse" color-interpolation-filters="sRGB">
<feFlood flood-opacity="0" result="BackgroundImageFix"/>
<feBlend mode="normal" in="SourceGraphic" in2="BackgroundImageFix" result="shape"/>
<feColorMatrix in="SourceAlpha" type="matrix" values="0 0 0 0 0 0 0 0 0 0 0 0 0 0 0 0 0 0 127 0" result="hardAlpha"/>
<feOffset dy="4"/>
<feGaussianBlur stdDeviation="25"/>
<feComposite in2="hardAlpha" operator="arithmetic" k2="-1" k3="1"/>
<feColorMatrix type="matrix" values="0 0 0 0 0 0 0 0 0 0 0 0 0 0 0 0 0 0 1 0"/>
<feBlend mode="normal" in2="shape" result="effect1_innerShadow_269_377"/>
</filter>
<filter id="filter4_i_269_377" x="713.752" y="1218.36" width="1016.49" height="1229.13" filterUnits="userSpaceOnUse" color-interpolation-filters="sRGB">
<feFlood flood-opacity="0" result="BackgroundImageFix"/>
<feBlend mode="normal" in="SourceGraphic" in2="BackgroundImageFix" result="shape"/>
<feColorMatrix in="SourceAlpha" type="matrix" values="0 0 0 0 0 0 0 0 0 0 0 0 0 0 0 0 0 0 127 0" result="hardAlpha"/>
<feOffset dy="4"/>
<feGaussianBlur stdDeviation="25"/>
<feComposite in2="hardAlpha" operator="arithmetic" k2="-1" k3="1"/>
<feColorMatrix type="matrix" values="0 0 0 0 0 0 0 0 0 0 0 0 0 0 0 0 0 0 1 0"/>
<feBlend mode="normal" in2="shape" result="effect1_innerShadow_269_377"/>
</filter>
<filter id="filter5_i_269_377" x="1220.18" y="1220.04" width="1224.46" height="1230.61" filterUnits="userSpaceOnUse" color-interpolation-filters="sRGB">
<feFlood flood-opacity="0" result="BackgroundImageFix"/>
<feBlend mode="normal" in="SourceGraphic" in2="BackgroundImageFix" result="shape"/>
<feColorMatrix in="SourceAlpha" type="matrix" values="0 0 0 0 0 0 0 0 0 0 0 0 0 0 0 0 0 0 127 0" result="hardAlpha"/>
<feOffset dy="4"/>
<feGaussianBlur stdDeviation="25"/>
<feComposite in2="hardAlpha" operator="arithmetic" k2="-1" k3="1"/>
<feColorMatrix type="matrix" values="0 0 0 0 0 0 0 0 0 0 0 0 0 0 0 0 0 0 1 0"/>
<feBlend mode="normal" in2="shape" result="effect1_innerShadow_269_377"/>
</filter>
<filter id="filter6_i_269_377" x="1219.09" y="714.734" width="1224.41" height="1021.09" filterUnits="userSpaceOnUse" color-interpolation-filters="sRGB">
<feFlood flood-opacity="0" result="BackgroundImageFix"/>
<feBlend mode="normal" in="SourceGraphic" in2="BackgroundImageFix" result="shape"/>
<feColorMatrix in="SourceAlpha" type="matrix" values="0 0 0 0 0 0 0 0 0 0 0 0 0 0 0 0 0 0 127 0" result="hardAlpha"/>
<feOffset dy="4"/>
<feGaussianBlur stdDeviation="25"/>
<feComposite in2="hardAlpha" operator="arithmetic" k2="-1" k3="1"/>
<feColorMatrix type="matrix" values="0 0 0 0 0 0 0 0 0 0 0 0 0 0 0 0 0 0 1 0"/>
<feBlend mode="normal" in2="shape" result="effect1_innerShadow_269_377"/>
</filter>
<filter id="filter7_i_269_377" x="1220.77" y="-0.646484" width="1225.88" height="1229.19" filterUnits="userSpaceOnUse" color-interpolation-filters="sRGB">
<feFlood flood-opacity="0" result="BackgroundImageFix"/>
<feBlend mode="normal" in="SourceGraphic" in2="BackgroundImageFix" result="shape"/>
<feColorMatrix in="SourceAlpha" type="matrix" values="0 0 0 0 0 0 0 0 0 0 0 0 0 0 0 0 0 0 127 0" result="hardAlpha"/>
<feOffset dy="4"/>
<feGaussianBlur stdDeviation="25"/>
<feComposite in2="hardAlpha" operator="arithmetic" k2="-1" k3="1"/>
<feColorMatrix type="matrix" values="0 0 0 0 0 0 0 0 0 0 0 0 0 0 0 0 0 0 1 0"/>
<feBlend mode="normal" in2="shape" result="effect1_innerShadow_269_377"/>
</filter>
<filter id="filter8_d_269_377" x="1061" y="2081" width="322" height="322" filterUnits="userSpaceOnUse" color-interpolation-filters="sRGB">
<feFlood flood-opacity="0" result="BackgroundImageFix"/>
<feColorMatrix in="SourceAlpha" type="matrix" values="0 0 0 0 0 0 0 0 0 0 0 0 0 0 0 0 0 0 127 0" result="hardAlpha"/>
<feOffset dy="4"/>
<feGaussianBlur stdDeviation="15"/>
<feComposite in2="hardAlpha" operator="out"/>
<feColorMatrix type="matrix" values="0 0 0 0 0 0 0 0 0 0 0 0 0 0 0 0 0 0 0.75 0"/>
<feBlend mode="normal" in2="BackgroundImageFix" result="effect1_dropShadow_269_377"/>
<feBlend mode="normal" in="SourceGraphic" in2="effect1_dropShadow_269_377" result="shape"/>
</filter>
<filter id="filter9_d_269_377" x="1738" y="1755" width="322" height="322" filterUnits="userSpaceOnUse" color-interpolation-filters="sRGB">
<feFlood flood-opacity="0" result="BackgroundImageFix"/>
<feColorMatrix in="SourceAlpha" type="matrix" values="0 0 0 0 0 0 0 0 0 0 0 0 0 0 0 0 0 0 127 0" result="hardAlpha"/>
<feOffset dy="4"/>
<feGaussianBlur stdDeviation="15"/>
<feComposite in2="hardAlpha" operator="out"/>
<feColorMatrix type="matrix" values="0 0 0 0 0 0 0 0 0 0 0 0 0 0 0 0 0 0 0.75 0"/>
<feBlend mode="normal" in2="BackgroundImageFix" result="effect1_dropShadow_269_377"/>
<feBlend mode="normal" in="SourceGraphic" in2="effect1_dropShadow_269_377" result="shape"/>
</filter>
<filter id="filter10_d_269_377" x="2020" y="1034" width="322" height="322" filterUnits="userSpaceOnUse" color-interpolation-filters="sRGB">
<feFlood flood-opacity="0" result="BackgroundImageFix"/>
<feColorMatrix in="SourceAlpha" type="matrix" values="0 0 0 0 0 0 0 0 0 0 0 0 0 0 0 0 0 0 127 0" result="hardAlpha"/>
<feOffset dy="4"/>
<feGaussianBlur stdDeviation="15"/>
<feComposite in2="hardAlpha" operator="out"/>
<feColorMatrix type="matrix" values="0 0 0 0 0 0 0 0 0 0 0 0 0 0 0 0 0 0 0.75 0"/>
<feBlend mode="normal" in2="BackgroundImageFix" result="effect1_dropShadow_269_377"/>
<feBlend mode="normal" in="SourceGraphic" in2="effect1_dropShadow_269_377" result="shape"/>
</filter>
<filter id="filter11_d_269_377" x="1716" y="411" width="322" height="322" filterUnits="userSpaceOnUse" color-interpolation-filters="sRGB">
<feFlood flood-opacity="0" result="BackgroundImageFix"/>
<feColorMatrix in="SourceAlpha" type="matrix" values="0 0 0 0 0 0 0 0 0 0 0 0 0 0 0 0 0 0 127 0" result="hardAlpha"/>
<feOffset dy="4"/>
<feGaussianBlur stdDeviation="15"/>
<feComposite in2="hardAlpha" operator="out"/>
<feColorMatrix type="matrix" values="0 0 0 0 0 0 0 0 0 0 0 0 0 0 0 0 0 0 0.75 0"/>
<feBlend mode="normal" in2="BackgroundImageFix" result="effect1_dropShadow_269_377"/>
<feBlend mode="normal" in="SourceGraphic" in2="effect1_dropShadow_269_377" result="shape"/>
</filter>
<filter id="filter12_d_269_377" x="1061" y="95" width="322" height="322" filterUnits="userSpaceOnUse" color-interpolation-filters="sRGB">
<feFlood flood-opacity="0" result="BackgroundImageFix"/>
<feColorMatrix in="SourceAlpha" type="matrix" values="0 0 0 0 0 0 0 0 0 0 0 0 0 0 0 0 0 0 127 0" result="hardAlpha"/>
<feOffset dy="4"/>
<feGaussianBlur stdDeviation="15"/>
<feComposite in2="hardAlpha" operator="out"/>
<feColorMatrix type="matrix" values="0 0 0 0 0 0 0 0 0 0 0 0 0 0 0 0 0 0 0.75 0"/>
<feBlend mode="normal" in2="BackgroundImageFix" result="effect1_dropShadow_269_377"/>
<feBlend mode="normal" in="SourceGraphic" in2="effect1_dropShadow_269_377" result="shape"/>
</filter>
<filter id="filter13_d_269_377" x="359" y="383" width="322" height="322" filterUnits="userSpaceOnUse" color-interpolation-filters="sRGB">
<feFlood flood-opacity="0" result="BackgroundImageFix"/>
<feColorMatrix in="SourceAlpha" type="matrix" values="0 0 0 0 0 0 0 0 0 0 0 0 0 0 0 0 0 0 127 0" result="hardAlpha"/>
<feOffset dy="4"/>
<feGaussianBlur stdDeviation="15"/>
<feComposite in2="hardAlpha" operator="out"/>
<feColorMatrix type="matrix" values="0 0 0 0 0 0 0 0 0 0 0 0 0 0 0 0 0 0 0.75 0"/>
<feBlend mode="normal" in2="BackgroundImageFix" result="effect1_dropShadow_269_377"/>
<feBlend mode="normal" in="SourceGraphic" in2="effect1_dropShadow_269_377" result="shape"/>
</filter>
<filter id="filter14_d_269_377" x="97" y="1065" width="322" height="322" filterUnits="userSpaceOnUse" color-interpolation-filters="sRGB">
<feFlood flood-opacity="0" result="BackgroundImageFix"/>
<feColorMatrix in="SourceAlpha" type="matrix" values="0 0 0 0 0 0 0 0 0 0 0 0 0 0 0 0 0 0 127 0" result="hardAlpha"/>
<feOffset dy="4"/>
<feGaussianBlur stdDeviation="15"/>
<feComposite in2="hardAlpha" operator="out"/>
<feColorMatrix type="matrix" values="0 0 0 0 0 0 0 0 0 0 0 0 0 0 0 0 0 0 0.75 0"/>
<feBlend mode="normal" in2="BackgroundImageFix" result="effect1_dropShadow_269_377"/>
<feBlend mode="normal" in="SourceGraphic" in2="effect1_dropShadow_269_377" result="shape"/>
</filter>
<filter id="filter15_d_269_377" x="332" y="1747" width="322" height="322" filterUnits="userSpaceOnUse" color-interpolation-filters="sRGB">
<feFlood flood-opacity="0" result="BackgroundImageFix"/>
<feColorMatrix in="SourceAlpha" type="matrix" values="0 0 0 0 0 0 0 0 0 0 0 0 0 0 0 0 0 0 127 0" result="hardAlpha"/>
<feOffset dy="4"/>
<feGaussianBlur stdDeviation="15"/>
<feComposite in2="hardAlpha" operator="out"/>
<feColorMatrix type="matrix" values="0 0 0 0 0 0 0 0 0 0 0 0 0 0 0 0 0 0 0.75 0"/>
<feBlend mode="normal" in2="BackgroundImageFix" result="effect1_dropShadow_269_377"/>
<feBlend mode="normal" in="SourceGraphic" in2="effect1_dropShadow_269_377" result="shape"/>
</filter>
<filter id="filter16_d_269_377" x="996" y="1000" width="452" height="452" filterUnits="userSpaceOnUse" color-interpolation-filters="sRGB">
<feFlood flood-opacity="0" result="BackgroundImageFix"/>
<feColorMatrix in="SourceAlpha" type="matrix" values="0 0 0 0 0 0 0 0 0 0 0 0 0 0 0 0 0 0 127 0" result="hardAlpha"/>
<feOffset dy="4"/>
<feGaussianBlur stdDeviation="15"/>
<feComposite in2="hardAlpha" operator="out"/>
<feColorMatrix type="matrix" values="0 0 0 0 0 0 0 0 0 0 0 0 0 0 0 0 0 0 0.75 0"/>
<feBlend mode="normal" in2="BackgroundImageFix" result="effect1_dropShadow_269_377"/>
<feBlend mode="normal" in="SourceGraphic" in2="effect1_dropShadow_269_377" result="shape"/>
</filter>
</defs>
</svg>
