<svg width="498" height="498" viewBox="0 0 498 498" fill="none" xmlns="http://www.w3.org/2000/svg">
<mask id="mask0_31_410" style="mask-type:alpha" maskUnits="userSpaceOnUse" x="0" y="0" width="498" height="498">
<rect width="498" height="498" rx="17" fill="#292928"/>
</mask>
<g mask="url(#mask0_31_410)">
<rect width="498" height="498" rx="17" fill="white"/>
</g>
<circle cx="250" cy="250" r="208" fill="#03A487" fill-opacity="0.25"/>
<path d="M115.129 379.456C116.763 380.585 119.476 381.543 122.703 381.543C130.892 381.543 131.911 375.502 131.911 364.762V344.421H135.864V364.762C135.864 376.965 134.392 385.103 122.703 385.103C119.254 385.103 116.38 384.256 114 382.622L115.129 379.456Z" fill="#424143"/>
<path d="M142.581 364.429C142.581 353.749 150.719 344.088 161.449 344.088C172.18 344.088 180.207 354.425 180.207 364.48C180.207 375.16 172.129 384.76 161.399 384.76C150.669 384.76 142.591 374.706 142.591 364.419L142.581 364.429ZM161.389 381.211C170.485 381.211 176.244 372.679 176.244 364.429C176.244 355.726 170.082 347.709 161.389 347.709C152.696 347.709 146.534 356.129 146.534 364.429C146.534 372.729 152.575 381.211 161.389 381.211Z" fill="#424143"/>
<path d="M206.307 384.478H187.438V344.371H206.7C212.348 344.371 215.847 349.564 215.847 354.597C215.847 358.61 213.699 362.281 210.089 363.915C214.667 365.266 217.541 369.28 217.541 374.141C217.541 380.131 212.458 384.478 206.297 384.478H206.307ZM191.341 347.82V362.624H205.127C209.08 362.624 212.015 359.125 212.015 355.222C212.015 351.319 209.251 347.82 205.46 347.82H191.341ZM206.71 365.841H191.341V381.039H206.307C210.431 381.039 213.598 377.419 213.598 373.465C213.598 369.512 210.663 365.841 206.71 365.841Z" fill="#424143"/>
<path d="M257.144 344.371V384.478H250.761V366.799H230.541V384.478H224.217V344.371H230.541V361.152H250.761V344.371H257.144Z" fill="#00A79D"/>
<path d="M263.356 364.429C263.356 353.749 271.495 344.088 282.447 344.088C293.399 344.088 301.316 354.425 301.316 364.48C301.316 375.16 293.238 384.76 282.275 384.76C271.313 384.76 263.346 374.706 263.346 364.419L263.356 364.429ZM282.336 379.062C290.243 379.062 294.882 371.61 294.882 364.429C294.882 356.805 289.91 349.857 282.336 349.857C274.762 349.857 269.79 357.198 269.79 364.429C269.79 371.66 274.651 379.062 282.336 379.062Z" fill="#00A79D"/>
<path d="M341.262 384.478V355.615L329.342 377.479H325.842L313.862 355.615V384.478H307.538V344.371H314.315L327.587 368.887L340.859 344.371H347.636V384.478H341.252H341.262Z" fill="#00A79D"/>
<path d="M383.8 378.891V384.488H356.288V344.381H383.296V349.978H362.622V361.394H380.532V366.648H362.622V378.911H383.81L383.8 378.891Z" fill="#00A79D"/>
<path d="M244.135 299.937C244.256 299.624 244.347 299.291 244.387 298.999C244.336 299.291 244.256 299.614 244.135 299.937Z" fill="#5AA59B"/>
<path d="M243.752 300.027C243.863 299.937 244.034 299.937 244.145 299.937C244.034 299.937 243.863 299.937 243.762 300.017L243.752 300.027Z" fill="#5AA59B"/>
<path d="M369.439 210.494C369.439 209.213 369.409 207.933 369.439 206.652C369.57 202.164 367.745 198.634 364.256 195.881C332.216 170.427 300.187 144.983 268.147 119.539C257.205 110.886 244.75 110.795 233.869 119.418C224.772 126.619 215.686 133.829 206.599 141.04C207.577 141.161 208.092 141.403 209.07 141.564C215.877 142.664 222.554 144.388 229.008 146.859C232.094 148.039 235.079 149.35 237.993 150.863C262.086 163.035 280.753 185.645 283.063 218.068C288.73 218.068 293.339 222.465 293.339 227.84V252.346C293.339 257.56 289.053 261.806 283.688 262.129C281.106 278.063 269.085 291.284 252.828 297.426C251.406 298.011 249.984 298.434 248.542 298.848C247.07 299.291 245.628 299.624 244.125 299.947C243.369 302.317 241.987 304.243 240.293 305.282C239.516 305.756 238.629 305.988 237.741 305.988H215.504C211.642 305.988 208.415 301.228 208.415 295.489C208.415 289.751 211.652 284.971 215.504 284.971H237.741C240.646 284.971 243.227 287.734 244.286 291.607C245.617 291.284 246.908 290.921 248.159 290.507C248.572 290.366 248.956 290.185 249.369 290.104C250.186 289.741 250.983 289.459 251.81 289.136C251.86 289.136 251.89 289.085 251.941 289.085C253.474 288.44 254.936 287.744 256.338 286.917C266.201 281.381 273.371 272.526 275.469 262.129H271.132V218.078H274.975C273.048 194.651 259.867 170.407 234.665 157.609C232.084 156.278 229.331 155.068 226.466 154.009C220.799 151.932 214.597 150.308 207.941 149.35C204.25 148.856 200.962 148.795 196.948 148.674C177.131 164.396 157.325 180.129 137.538 195.891C135.219 197.737 133.091 199.946 132.859 202.9C132.496 207.721 132.102 212.693 132.819 217.423C133.736 223.594 139.414 227.154 145.778 226.539C151.637 226.005 156.145 221.003 156.256 214.508C156.296 212.239 157.083 210.928 158.787 209.577C159.574 208.951 160.36 208.326 161.147 207.711C161.096 208.286 161.076 208.881 161.076 209.486V214.79C161.076 214.911 161.056 215.032 161.056 215.153V321.246H161.076C161.076 326.49 165.322 330.736 170.566 330.736H226.174L272.584 330.716H327.95C333.184 330.716 337.42 326.48 337.44 321.246V263.147C337.44 245.156 337.44 227.154 337.46 209.153C337.46 207.549 337.269 206.077 336.875 204.706C338.812 206.238 340.748 207.771 342.674 209.314C344.53 210.807 345.528 212.239 345.568 214.8C345.73 221.184 350.288 226.025 356.057 226.549C362.41 227.134 367.715 223.514 369.106 217.412C369.59 215.184 369.439 212.814 369.57 210.514H369.419L369.439 210.494Z" fill="#00A79D"/>
</svg>
