<svg width="25" height="25" viewBox="0 0 100 102" fill="none" xmlns="http://www.w3.org/2000/svg">
<g clip-path="url(#clip0_93_453)">
<path fill-rule="evenodd" clip-rule="evenodd" d="M46.8951 0.0948234C46.5759 0.132351 45.4869 0.244934 44.4793 0.345008C32.757 1.51462 20.9472 7.55659 12.9613 16.4757C4.13049 26.3392 -0.356879 38.5795 0.0561843 51.6204C0.775916 74.1433 16.2658 93.2136 38.2395 98.6427C51.1258 101.826 65.2952 99.5558 76.523 92.5131C87.7257 85.4767 95.5677 74.6374 98.7032 61.8405C99.7797 57.456 100.03 55.2231 100.03 50.038C100.03 44.8529 99.7797 42.62 98.7032 38.2355C93.7465 18.0018 77.0737 3.11581 56.3267 0.4013C54.5493 0.169879 48.0842 -0.0365237 46.8951 0.0948234ZM55.4067 9.77698C62.3787 10.6776 68.9063 13.3609 74.7518 17.7266C76.8109 19.2652 80.8601 23.312 82.3997 25.3698C85.9108 30.067 88.5081 35.5898 89.6847 40.875C91.024 46.9107 91.024 53.1653 89.6847 59.201C87.0936 70.8409 78.8887 81.1735 68.0114 86.4899C64.081 88.4101 60.0255 89.6673 55.5757 90.3428C52.922 90.7493 47.2142 90.7493 44.5606 90.3428C32.369 88.4914 22.08 81.8427 15.6024 71.6227C14.2631 69.5149 12.5107 65.8372 11.6345 63.2915C10.1262 58.9321 9.47528 54.9228 9.47528 50.038C9.47528 43.5394 10.7332 37.9978 13.5183 32.2749C15.6462 27.9091 17.8117 24.8944 21.3602 21.348C24.9088 17.8017 27.9254 15.6376 32.2939 13.511C39.51 10.0021 47.3582 8.73871 55.4067 9.77698ZM48.2281 26.8333C46.8262 27.2899 46.0314 28.0905 45.6434 29.429C45.418 30.1921 45.393 31.9371 45.4306 42.6325C45.4806 54.9541 45.4806 54.9604 45.8436 55.6421C46.3005 56.499 47.1767 57.2746 48.0091 57.5686C48.8352 57.8563 51.3011 57.8563 52.1272 57.5686C52.9596 57.2746 53.8358 56.499 54.2927 55.6421C54.6556 54.9604 54.6556 54.9541 54.7057 42.6325C54.7558 29.1726 54.7558 29.1601 53.7982 28.028C53.0222 27.1023 52.1898 26.7958 50.3185 26.7458C49.3985 26.7208 48.4597 26.7583 48.2281 26.8333ZM48.7288 65.8622C47.546 66.25 46.3756 67.257 45.8061 68.3765C45.368 69.2522 45.2929 70.8346 45.6496 71.8979C46.2379 73.6805 48.1718 75.0565 50.0681 75.0565C51.9645 75.0565 53.8984 73.6805 54.4867 71.8979C54.8434 70.8346 54.7683 69.2522 54.3302 68.3765C53.9234 67.576 52.9471 66.5877 52.1522 66.1749C51.4262 65.7996 49.4673 65.6182 48.7288 65.8622Z" fill="#E35F5F"/>
</g>
<defs>
<clipPath id="clip0_93_453">
<rect width="100" height="102" fill="white"/>
</clipPath>
</defs>
</svg>
