<svg width="498" height="498" viewBox="0 0 498 498" fill="none" xmlns="http://www.w3.org/2000/svg">
<mask id="mask0_102_696" style="mask-type:alpha" maskUnits="userSpaceOnUse" x="0" y="0" width="498" height="498">
<rect width="498" height="498" rx="17" fill="#292928"/>
</mask>
<g mask="url(#mask0_102_696)">
<rect width="498" height="498" rx="17" fill="white"/>
</g>
<circle cx="250" cy="250" r="208" fill="#03A487" fill-opacity="0.25"/>
<path d="M224.449 147.756C269.811 137.894 298.834 155.951 302.413 157.804C337.372 175.555 355.665 209.193 358.338 241.696H352.993V302.817H359.018C356.109 317.245 346.159 329.522 332.481 337.204C330.538 338.348 328.507 339.325 326.387 340.212C326.328 340.212 326.268 340.281 326.209 340.281C325.065 340.725 323.961 341.119 322.827 341.622C322.265 341.731 321.722 341.977 321.15 342.175C319.415 342.747 317.63 343.249 315.776 343.693C314.306 338.329 310.727 334.492 306.693 334.492H275.837C270.482 334.492 265.995 341.109 265.995 349.087C265.995 357.065 270.482 363.653 275.837 363.653H306.693C307.916 363.653 309.159 363.318 310.234 362.667C312.581 361.227 314.503 358.554 315.549 355.261C315.401 355.261 315.164 355.261 315.007 355.379C315.332 354.906 315.598 354.462 315.904 353.949C315.845 354.354 315.716 354.817 315.549 355.251C317.63 354.797 319.632 354.353 321.673 353.732C323.675 353.16 325.637 352.559 327.61 351.76C350.153 343.24 366.838 324.897 370.428 302.798C377.864 302.354 383.81 296.467 383.81 289.228V255.236C383.81 247.771 377.41 241.676 369.55 241.676C366.355 196.688 340.449 165.319 307.019 148.436C302.975 146.345 298.834 144.521 294.554 142.884C285.59 139.452 279.545 137.727 270.807 135.912C247.14 130.981 222.871 139.038 221.5 138.87" fill="#5AA59B"/>
<path d="M314.987 355.399C315.312 354.915 315.588 354.462 315.884 353.969C315.815 354.373 315.697 354.827 315.529 355.27C315.371 355.27 315.125 355.27 314.987 355.389V355.399Z" fill="#5AA59B"/>
<path d="M274.742 144.797C243.185 137.894 198.966 155.951 195.387 157.804C160.428 175.555 142.135 209.193 139.462 241.696H144.807V302.817H138.782C138.782 302.817 127.402 302.926 127.382 302.817C119.947 302.374 114 296.486 114 289.248V255.256C114 247.79 120.4 241.696 128.26 241.696C131.455 196.708 157.361 165.339 190.791 148.456C194.835 146.365 198.976 144.541 203.256 142.904C212.22 139.472 218.265 137.746 227.003 135.932C250.67 131.001 273.381 137.086 274.742 136.918" fill="#5AA59B"/>
</svg>
