<svg width="25" height="25" viewBox="0 0 86 86" fill="none" xmlns="http://www.w3.org/2000/svg">
<path d="M5.375 5.375V80.625H80.625V5.375H5.375ZM10.75 10.75H75.25V75.25H10.75V10.75ZM26.875 18.8125C24.7367 18.8125 22.686 19.6619 21.174 21.174C19.6619 22.686 18.8125 24.7367 18.8125 26.875C18.8125 29.0133 19.6619 31.064 21.174 32.576C22.686 34.0881 24.7367 34.9375 26.875 34.9375C29.0133 34.9375 31.064 34.0881 32.576 32.576C34.0881 31.064 34.9375 29.0133 34.9375 26.875C34.9375 24.7367 34.0881 22.686 32.576 21.174C31.064 19.6619 29.0133 18.8125 26.875 18.8125ZM32.25 51.0625L13.4375 69.875H29.5625L40.3125 59.125L32.25 51.0625ZM53.75 51.0625L34.9375 69.875H72.5625L53.75 51.0625Z" fill="white"/>
</svg>
