<svg width="498" height="498" viewBox="0 0 498 498" fill="none" xmlns="http://www.w3.org/2000/svg">
<rect width="498" height="498" fill="#03A487"/>
<mask id="mask0_251_326" style="mask-type:alpha" maskUnits="userSpaceOnUse" x="0" y="0" width="498" height="498">
<path d="M0 0H498V498H0V0Z" fill="#292928"/>
</mask>
<g mask="url(#mask0_251_326)">
<rect x="-402.424" y="198.301" width="425.564" height="1116.59" transform="rotate(-45 -402.424 198.301)" fill="#23AA8D"/>
<rect x="-101.612" y="-102.512" width="425.564" height="1116.59" transform="rotate(-45 -101.612 -102.512)" fill="#03A487"/>
</g>
<path d="M239.923 256.797C239.923 250.094 241.087 244.508 243.414 240.039C245.742 235.57 248.581 232.033 251.933 229.426C255.284 226.726 259.799 223.7 265.479 220.349C270.878 217.183 275.161 214.39 278.326 211.97C281.492 209.456 284.145 206.198 286.286 202.194C288.521 198.098 289.638 193.071 289.638 187.112C289.638 175.382 285.914 166.444 278.466 160.3C271.018 154.155 260.591 151.083 247.185 151.083C234.058 151.083 223.91 154.574 216.741 161.557C209.573 168.446 205.942 178.082 205.849 190.464H189.37C189.37 179.199 191.744 169.47 196.492 161.277C201.24 152.992 207.897 146.661 216.462 142.285C225.12 137.816 235.175 135.582 246.626 135.582C258.263 135.582 268.551 137.584 277.488 141.587C286.426 145.59 293.408 151.502 298.436 159.322C303.463 167.143 305.977 176.499 305.977 187.392C305.977 196.236 304.534 203.591 301.647 209.456C298.761 215.228 295.27 219.79 291.174 223.142C287.077 226.4 281.864 229.891 275.533 233.615C270.878 236.315 267.294 238.596 264.78 240.458C262.267 242.32 260.125 244.601 258.356 247.301C256.681 250.001 255.843 253.213 255.843 256.937V279.979H239.923V256.797ZM238.107 304.277H258.077V335H238.107V304.277Z" fill="white"/>
</svg>
