<svg width="914" height="177" viewBox="0 0 914 177" fill="none" xmlns="http://www.w3.org/2000/svg">
<path d="M190.89 161.54C195.3 164.58 202.6 167.17 211.26 167.17C233.31 167.17 236.04 150.9 236.04 122.01V67.27H246.68V122.01C246.68 154.85 242.73 176.75 211.25 176.75C201.98 176.75 194.22 174.47 187.84 170.06L190.88 161.55L190.89 161.54Z" fill="white"/>
<path d="M264.79 121.1C264.79 92.36 286.68 66.36 315.57 66.36C344.46 66.36 366.05 94.18 366.05 121.25C366.05 149.99 344.31 175.83 315.42 175.83C286.53 175.83 264.79 148.77 264.79 121.09V121.1ZM315.42 166.26C339.9 166.26 355.41 143.3 355.41 121.1C355.41 97.69 338.84 76.09 315.42 76.09C292 76.09 275.43 98.74 275.43 121.1C275.43 143.46 291.7 166.26 315.42 166.26Z" fill="white"/>
<path d="M436.29 175.07H385.51V67.12H437.36C452.56 67.12 461.99 81.11 461.99 94.64C461.99 105.44 456.21 115.32 446.48 119.73C458.8 123.38 466.55 134.17 466.55 147.25C466.55 163.37 452.87 175.07 436.29 175.07ZM396 76.39V116.23H433.1C443.74 116.23 451.65 106.8 451.65 96.31C451.65 85.82 444.2 76.39 434.01 76.39H396ZM437.36 124.89H396V165.79H436.29C447.39 165.79 455.9 156.06 455.9 145.42C455.9 134.78 447.99 124.89 437.35 124.89H437.36Z" fill="white"/>
<path d="M89.98 151.29C90.07 151.22 90.21 151.22 90.29 151.22C90.2 151.22 90.06 151.22 89.98 151.29Z" fill="#5AA59B"/>
<path d="M573.13 67.12V175.07H555.95V127.48H501.52V175.07H484.49V67.12H501.52V112.28H555.95V67.12H573.13Z" fill="#00A79D"/>
<path d="M589.85 121.1C589.85 92.36 611.74 66.36 641.24 66.36C670.74 66.36 692.02 94.18 692.02 121.25C692.02 149.99 670.28 175.83 640.78 175.83C611.28 175.83 589.85 148.77 589.85 121.09V121.1ZM640.94 160.48C662.23 160.48 674.69 140.41 674.69 121.1C674.69 100.57 661.31 81.87 640.94 81.87C620.57 81.87 607.19 101.64 607.19 121.1C607.19 140.56 620.27 160.48 640.94 160.48Z" fill="#00A79D"/>
<path d="M799.51 175.07V97.38L767.43 156.22H758L725.77 97.38V175.07H708.74V67.12H726.99L762.72 133.11L798.45 67.12H816.7V175.07H799.52H799.51Z" fill="#00A79D"/>
<path d="M914 160.02V175.07H839.95V67.12H912.63V82.17H856.98V112.88H905.18V127.02H856.98V160.01H914V160.02Z" fill="#00A79D"/>
<path d="M191.11 79.25C191.11 78.22 191.08 77.19 191.11 76.16C191.22 72.55 189.74 69.71 186.94 67.49C161.16 47.01 135.39 26.54 109.61 6.05996C100.8 -0.90004 90.7799 -0.980041 82.0299 5.95996C74.7099 11.76 67.3999 17.56 60.0899 23.36C60.8799 23.46 61.2899 23.65 62.0799 23.79C67.5499 24.67 72.9199 26.06 78.1199 28.05C80.5999 29 82.9999 30.06 85.3499 31.27C104.74 41.06 119.76 59.26 121.61 85.34C126.17 85.34 129.88 88.88 129.88 93.2V112.92C129.88 117.12 126.43 120.53 122.12 120.79C120.04 133.61 110.37 144.24 97.2899 149.19C96.1499 149.66 94.9999 150 93.8399 150.34C92.6599 150.7 91.4999 150.96 90.2899 151.22C89.6899 153.13 88.5699 154.68 87.2099 155.51C86.5899 155.89 85.8699 156.08 85.1599 156.08H67.2699C64.1599 156.08 61.5599 152.25 61.5599 147.63C61.5599 143.01 64.1599 139.17 67.2699 139.17H85.1599C87.4999 139.17 89.5699 141.39 90.4299 144.51C91.4999 144.25 92.5399 143.96 93.5499 143.63C93.8799 143.52 94.1899 143.37 94.5199 143.31C95.1799 143.01 95.8199 142.79 96.4799 142.53C96.5199 142.53 96.5499 142.49 96.5799 142.49C97.8099 141.97 98.9899 141.41 100.11 140.74C108.05 136.29 113.82 129.16 115.5 120.8H112.01V85.35H115.1C113.55 66.5 102.94 46.99 82.6699 36.7C80.5899 35.63 78.3799 34.66 76.0699 33.81C71.5099 32.14 66.5199 30.83 61.1699 30.07C58.1999 29.67 55.5599 29.62 52.3199 29.53C36.3799 42.18 20.4399 54.84 4.51991 67.52C2.64991 69.01 0.939915 70.78 0.749915 73.16C0.449915 77.04 0.139916 81.04 0.719916 84.84C1.45992 89.81 6.02991 92.67 11.1499 92.18C15.8699 91.75 19.4899 87.73 19.5799 82.5C19.6099 80.68 20.2499 79.62 21.6199 78.53C22.2499 78.03 22.8799 77.53 23.5199 77.03C23.4799 77.49 23.4599 77.97 23.4599 78.46V82.73C23.4599 82.83 23.4399 82.93 23.4399 83.03V168.39H23.4499C23.4499 172.61 26.8699 176.02 31.0899 176.02H113.17L157.72 176.01C161.93 176.01 165.34 172.6 165.36 168.39V121.64C165.36 107.16 165.36 92.68 165.38 78.19C165.38 76.9 165.22 75.71 164.91 74.61C166.47 75.84 168.02 77.08 169.58 78.31C171.07 79.51 171.87 80.67 171.91 82.72C172.04 87.85 175.71 91.75 180.35 92.17C185.46 92.64 189.73 89.73 190.85 84.82C191.24 83.03 191.12 81.12 191.22 79.27H191.1L191.11 79.25Z" fill="#00A79D"/>
</svg>
